<mxfile host="app.diagrams.net" modified="2023-07-30T20:02:41.000Z" agent="Mozilla/5.0 (Windows NT 10.0; Win64; x64) AppleWebKit/537.36 (KHTML, like Gecko) Chrome/115.0.0.0 Safari/537.36 Edg/115.0.1901.188" etag="zpBACroNUY7yAWj4UfO7" version="21.6.6" type="device">
  <diagram name="Page-1" id="8W_u-6_hWhXLAKUfa79D">
    <mxGraphModel dx="3152" dy="1356" grid="1" gridSize="10" guides="1" tooltips="1" connect="1" arrows="1" fold="1" page="1" pageScale="1" pageWidth="850" pageHeight="1100" math="0" shadow="0">
      <root>
        <mxCell id="0" />
        <mxCell id="1" parent="0" />
        <mxCell id="LObEnB04C_dO1wFCS9D5-1" value="" style="shape=image;verticalLabelPosition=bottom;labelBackgroundColor=default;verticalAlign=top;aspect=fixed;imageAspect=0;image=data:image/png,iVBORw0KGgoAAAANSUhEUgAAA4UAAALwCAYAAAAgSNBmAAAAAXNSR0IArs4c6QAAIABJREFUeF7svQ2wVdWZ5/1wg1dAMNCXLtqoDM1EIdZUqDF2qhPhdWIq6ESqrOFOqdNKtyk7ZfCDr2DKJn4i2m9FooAosVN27IAzwXovU3aRHrVKHQtN0mnDNNZUBSYZmjIxFtXcBoUAXqnLW8/OXafXPZxzzz577Y+11v6dKgXu3WutZ/2e5znn+Z+19trjLrroon/6xS9+MUt4QaDmBD75yU+e+uUvfzm+5hiYPgRaEiA/CAwIQAACEIBAnAQuuuiiA+NE5PTp06fjnCGzgkAXBMaNG6fJ0EULLoVAfQiQH/XxNTOFAAQgAIF6EdDPeERhvXzObMcgQNFLeECgPQHyg+iAAAQgAAEIxEkAURinX5lVRgIUvRnB0awWBMiPWriZSUIAAhCAQA0JIApr6HSmzEoIMQCBLAQQhVmo0QYCEIAABCDgPwFEof8+wsISCVD0lgiboYIjQH4E5zIMhgAEIAABCKQigChMhYmL6kKAorcunmaeWQiQH1mo0QYCEIAABCDgPwFEof8+wsISCVD0lgiboYIjQH4E5zIM9pjA4OCg3HjjjbJkyZLkT14QgAAEqiSAKMxIv9Wb+UMPPSRvvvmmPPfcc9LX15ex587NTpw4IStXrpTzzz9f7r333s4NuCI1gboVvRqv8+fPb/BZu3atc0xp/M+aNUsuv/zy1Nz1Qs2fd999Vx5//HGZOHFio632d9NNN43q69Zbbz3juq4GS3mx5vlTTz0lq1evHmVTyubRXVa3/IjOgUyocAKmNnjppZfEfj8172NXXXVVo0bQn+3fv9/5PXffvn1y/fXXy5NPPtn1+24nIO3elzu1y/P3+jl14MCBMYWzsnz00Udl+/btMmfOnDyHpy8I1IYAojCjq6sUhRlNplkKAnUqeo0gfOONN5JCwsS0/j3rlw0uxclYonDr1q2NQqrMb9d9KIhShG1pl9QpP0qDykBREbBFofnySieoX+Q+/fTTYovCECZe9Xtgme/3IfgDGyFQJAFEYUa6nUThpEmTGh8COoT5xtAuxC+99NLkGn3p6oj9wdGqjX4TqN+CvfLKK/L88883VgrtDyFtt23bNraiZPRrXYreNKvN5hotZOx4NMKvv79f7rvvvuR3GnNXX311Enf6Dbm+/vqv/1r+/u//Xv7pn/5JDh48KH/8x3+cxPmOHTsaK392gZRWFDbbbsf/vHnzGt8U6zfHKiZ11dIUYzreqlWrEvuMGG43T3uF0tj54osvtrQ9Y7gF16wu+RGcYzDYGwLm/ej06dOJTZs2bUr+XLZsWfKn5pC+t+zdu7exS8N+32oWlbpCpttLzfur+dLOXhnTfs1K4fTp05O/N78/63tzu/c6G559jb7v6funqVGOHz/eeI+3bbbbG7sWLlyYrNyZ62bOnDmq3tm9e3cyf30ftmshna9+hqigfuSRR2TNmjXJ+7f5DLruuuuS+e3Zs2fU+3jzSqF+ntifT2zP9SZFMMRjAojCjM7pJArNG76+4enr9ttvT4rVQ4cOtXwjNMXyrl27ksJZ3zCb2xixZxfFuq3NFpb2G2232/cyooiqWV2K3jTfvtrboTVu9YP4rrvukssuu6xRdOiKYqvrdBuT+aDXD3mzpXqsL0XWr1/fdvuovVJoRKnasnjx4iT+FyxYkBQrRgjqn0bAaQ7ahVJzzui4Ztu3PU/tzxaq7YqY5u2uUSVE02Tqkh8x+5C5FUvAvLeqmDKCTkfUz/Zzzz1X3n77bXniiSfkzjvvTHZkmPdJvR2k3ee5/aVbN6Kw+f1Z3xNb1Rj2dktbXOn7pr4P6lyMQGv1XmvfLmO+TDP1inkPNe2NwGz1fmo+K+z6ae7cuY37Lpvf7+33Z/2y0WwffeuttxrzfOeddwrbWltsJNE7BMongCjMyLyTKDTFpfk2y7xBjlUU631UpuDVduYbNltI6geCLQrNt2bmXoI0K0AZp1yLZnUpejuJwnbxrff8LV26VP7sz/6scf+KLcRM3Nui0BQBGt/Nq4GaD+bLD139TntPoVl5t/PFBKjJGy0MjJhsJ/a0aLrllltGHfRg22gL1WbRattel3tY6pIftXizY5KFELC34bcawD53wF7N0ve02267LRFARvjZ78PdrhSamsB+f1bx1qrGsN+/mt+jzb/N+76paXRurVYLm1fszL//5m/+RrZs2ZIgMV98N68UmnMS7NsQbFFoVvvsXRxmi64RhWYcs7pofMAOqkLCnU4jI4AozOjQsYpme+WgeQuDfuPWasuEttGic2BgoLGi2Gp1EVGY0WEpm9Wl6O305YFvorCduLNXDZu3B7USq7q6aK8AIgpTJsbIZXXJj+6ocDUE/pWALQqvvPLKxhZR3bHw6quvJrsSHnzwwWR7pG7xNKuDKoiMKDSnkeYtCvXQrFY1Rjei0LyHtvN5kaLQCGOto0zNZL5IbBaF9peRxCcEIJCOAKIwHaczrjJFtXnj0T/tE0HtVQSzBUPf6M3WO31jtd/gmrdW2FshxlopZPtoRge2aVanorfTQTOdto+2+ia600phHttHzbfEzfeitCoSOq0UmjZsH02XR3XKj3REuAoCownYotDs5PmDP/iDZGu7ijJ9r9H7C6+55prkfjqzEmZWB1ttWddVLrN10tQc9pfI+rPmewqb35+feeaZZKeGaW/XGN1sH7XHH2tnR/P20eb3Wnt7v72FVr+oa7dSaNdPzTyat4+araT6mWS+YK/Ljg5yEgJZCSAKs5ITaZzWaA7WaD5VzF4lbHUK2Q033JCM/vGPf3zUdgr9md6krYdz6Bu7vszqYvNKob6BctCMgxObmtat6B3rkRSdDpppJQoVpzlsxhw0Y4oI85iJVge46Lambg+aMfef2Fu1Wx00o+ONda+g+UKn+UAd/XnzMfIcNDNOzAEa+WUdPUEgHgK2KGx3/7IRaPqeo+9ZM2bMkD/8wz9M6gD7MBetG8x9ieaeaX08j7bRGuHll19OdhalEYXNh9vYNYZ9/sBYB82Y+/Ps21uahVa7g2b0OvvzRrfL6kEw9pd7rbaPGsGorLSNvswBMiqEjxw5krxP63uzEYLmUBvzns7W0Xjyi5kUSwBRWCxfeg+MQN1EYWDuwdyKCZAfFTuA4WtFoNO93z7CqOp5gc33TvrIBpsg4DsBRKHvHsK+UglQ9JaKm8ECI0B+BOYwzA2aAKIwnfvMjg5zAFm6VlwFAQg0E0AUEhMQsAhQ9BIOEGhPgPwgOiAAAQhAAAJxEkAUxulXZpWRAEVvRnA0qwUB8qMWbmaSEIAABCBQQwKIwho6nSmzEkIMQCALAURhFmq0gQAEIAABCPhPAFHov4+wsEQCFL0lwmao4AiQH8G5DIMhAAEIQAACqQggClNh4qK6EKDorYunmWcWAuRHFmq0gQAEIAABCPhPIBGF06ZNO3z48OGp/puLhRAolsDUqVNPHzlyZFyxo9A7BMIkQH6E6TeshgAEIAABCHQiMG3atKQAPi0iFMKdaPH7OhAgF+rgZeaYlQD5kZUc7SAAAQhAAAJ+EziNKPTbQVhXLgGK3nJ5M1pYBMiPsPyFtRCAAAQgAIG0BBCFaUlxXS0IUPTWws1MMiMB8iMjOJpBAAIQgAAEPCeAKPTcQZhXLgGK3nJ5M1pYBMiPsPyFtRCAAAQgAIG0BBCFaUlxXS0IUPTWws1MMiMB8iMjOJpBAAIQgAAEPCeAKPTcQZhXLgGK3nJ5M1pYBMiPsPyFtRCAAAQgAIG0BBCFaUlxXS0IUPTWws1MMiMB8iMjOJpBAAIQgAAEPCeAKPTcQZhXLgGK3nJ5M1pYBMiPsPyFtRCAAAQgAIG0BBCFaUlxXS0IUPTWws1MMiMB8iMjOJpBAAIQgAAEPCeAKPTcQZhXLgGK3nJ5M1pYBMiPsPyFtRCAAAQgAIG0BBCFaUlxXS0IUPTWws1MMiMB8iMjOJpBAAIQgAAEPCeAKPTcQZhXLgGK3nJ5M1pYBMiPsPyFtRCAAAQgAIG0BBCFaUlxXS0IUPTWws1MMiMB8iMjOJpBAAIQgAAEPCeAKPTcQZhXLgGK3nJ5M1pYBMiPsPyFtRCAAAQgAIG0BBCFaUlxXS0IUPTWws1MMiMB8iMjOJpBAAIQgAAEPCeAKPTcQZhXLgGK3nJ5M1pYBMiPsPyFtRCAAAQgAIG0BBCFaUlxXS0IUPTWws1MMiMB8iMjOJpBAAIQgAAEPCeAKPTcQZhXLgGK3nJ5M1pYBMiPsPyFtRCAAAQgAIG0BBCFaUlxXS0IUPTWws1MMiMB8iMjOJpBAAIQgAAEPCeAKPTcQZhXLgGK3nJ5M1pYBMiPsPyFtRCAAAQgAIG0BBCFaUlxXS0IUPTWws1MMiMB8iMjOJpBAAIQgAAEPCeAKPTcQZhXLgGK3nJ5M1pYBMiPsPyFtRCAAAQgAIG0BBCFaUlxXS0IUPTWws1MMiMB8iMjOJpBAAIQgAAEPCeAKPTcQZhXLgGK3nJ5M1pYBMiPsPyFtRCAAAQgAIG0BBCFaUlxXS0IUPTWws1MMiMB8iMjOJpBAAIQgAAEPCeAKPTcQZhXLgGK3nJ5M1pYBMiPsPyFtRCAAAQgAIG0BBCFaUnlfN1EEflTEfkvIvJpEfn4SP/vi8jbIvLfROT7InIi53HpbmwCFL1ECATaEyA/iA4IQAACEIBAnAQQhRX49esi8pCIfCQi57YZ/wMROUtE7hWRb1dgY12HpOitq+eZdxoC5EcaSlwDAQhAAAIQCI8AorBEn00Qkf8hIv/eWhnsNLyuHP4vEfmPInKy08X83pkARa8zQjqImAD5EbFzmRoEIAABCNSaAKKwRPf/TET+nYj0djnmkIj8bxH5TJftuLx7AhS93TOjRX0IkB/18TUzhQAEIACBehFAFJbk778RkX4ROSfjeL8VkQER+bOM7WmWjgBFbzpOXFVPAuRHPf3OrCEAAQhAIH4CiMISfPxFEfnvIjLFcayjIvKfROQVx35o3p4ARS/RAQHygxiAAAQgAAEI1I0AorAEj/9PEbkip3FeF5H/kFNfdHMmAUQhUQEBRCExAAEIQAACEKgbAURhwR6fLiLvicj4nMY5JSLnicihnPqjm9EEEIVEBAQQhcQABCAAAQhAoG4EEIUFe/xaEdH7Cc1zCF2H09NI9b7CF1w7on1LAohCAgMCiEJiAAIQgAAEIFA3AojCgj2uzyR8JMOJo+3M0pNI1/DswsK8higsDC0dR0CA/IjAiUwBAhCAAAQg0IIAorDgsHhARO7PeYwHRUT75ZU/AYre/JnSYzwEyI94fMlMIAABCEAAAjYBRGHB8cBKYcGAc+6eojdnoHQXFQHyIyp3MhkIQAACEIBAgwCisOBg4J7CggHn3D1Fb85A6S4qAuRHVO5kMhCAAAQgAAFEYVkxwOmjZZHOZxyK3nw40kucBMiPOP3KrCAAAQhAAAKsFJYQAzynsATIOQ1B0ZsTSLqJkgD5EaVbmRQEIAABCEBAEIUlBMEXReS/i8gUx7GOish/EpFXHPuheXsCFL1EBwTID2IAAhCAAAQgUDcCiMKSPK7PKuwXkXMyjvdbERkYeUZhxi5oloIAojAFJC6pLQHyo7auZ+IQgAAEIBA5AURhiQ7+mYj8uwzPLNRnE/5vEflMibbWdSiK3rp6nnmnIUB+pKHENRCAAAQgAIHwCCAKS/TZBBH5HyLy70Xk4ynHfV9E/peI/EcROZmyDZdlJ0DRm50dLeMnQH7E72NmCAEIQAAC9SSAKKzA7/rswodE5CMRObfN+B+IyFkicq+IfLsCG+s6JEVvXT3PvNMQID/SUOIaCEAAAhCAQHgEEIUV+WyiiPypiPwXEfm0iEwdseOIiLwtIv9NRL4vIicqsq+uw1L01tXzzDsNAfIjDSWugQAEIAABCIRHAFHoic8eGLHD/OmJWbUzg6K3di5nwl0QID+6gMWlEIAABCAAgYAIIAo9cRai0A9HUPT64Qes8JMA+eGnX7AKAhCAAAQg4EoAUehKMKf2iMKcQDp2Q9HrCJDmURMgP6J2L5ODAAQgAIEaE0AUeuJ8RKEfjqDo9cMPWOEnAfLDT79gFQQgAAEIQMCVAKLQlWBO7RGFOYF07Iai1xEgzaMmQH5E7V4mBwEIQAACNSaAKPTE+YhCPxxB0euHH7DCTwLkh59+wSoIQAACEICAKwFEoSvBnNojCnMC6dgNRa8jQJpHTYD8iNq9TA4CEIAABGpMAFHoifMRhX44gqLXDz9ghZ8EyA8//YJVEIAABCAAAVcCiEJXgjm1RxTmBNKxG4peR4A0j5oA+RG1e5kcBCAAAQjUmACi0BPnIwr9cARFrx9+wAo/CZAffvoFqyAAAQhAAAKuBBCFrgRzao8ozAmkYzcUvY4AaR41AfIjavcyOQhAAAIQqDEBRKEnzkcU+uEIil4//IAVfhIgP/z0C1ZBAAIQgAAEXAkgCl0J5tQeUZgTSMduKHodAdI8agLkR9TuZXIQgAAEIFBjAohCT5yPKPTDERS9fvgBK/wkQH746ResggAEIAABCLgSQBS6EsypPaIwJ5CO3VD0OgKkedQEyI+o3cvkIAABCECgxgQQhZ44H1HohyMoev3wA1b4SYD88NMvWAUBCEAAAhBwJYAodCWYU3tEYU4gHbuh6HUESPOoCZAfUbuXyUEAAhCAQI0JIAo9cT6i0A9HUPT64Qes8JMA+eGnX7AKAhCAAAQg4EoAUehKMKf2iMKcQDp2Q9HrCJDmURMgP6J2L5ODAAQgAIEaE0AUeuJ8RKEfjqDo9cMPWOEnAfLDT79gFQQgAAEIQMCVAKLQlWBO7RGFOYF07Iai1xEgzaMmQH5E7V4mBwEIQAACNSaAKPTE+YhCPxxB0euHH7DCTwLkh59+wSoIQAACEICAKwFEoSvBnNojCnMC6dgNRa8jQJpHTYD8iNq9TA4CEIAABGpMAFHoifMRhX44gqLXDz9ghZ8EyA8//YJVEIAABCAAAVcCiEJXgjm1RxTmBNKxG4peR4A0j5oA+RG1e5kcBCAAAQjUmACi0BPnIwr9cARFrx9+wAo/CZAffvoFqyAAAQhAAAKuBBCFrgRzao8ozAmkYzcUvY4AaR41AfIjavcyOQhAAAIQqDEBRKEnzkcU+uEIil4//IAVfhIgP/z0C1ZBAAIQgAAEXAkgCl0J5tQeUZgTSMduKHodAdI8agLkR9TuZXIQgAAEIFBjAohCT5yPKPTDERS9fvgBK/wkQH746ResggAEIAABCLgSQBS6EsypPaIwJ5CO3VD0OgKkedQEyI+o3cvkIAABCECgxgQQhZ44H1HohyMoev3wA1b4SYD88NMvWAUBCEAAAhBwJYAodCWYU3tEYU4gHbuh6HUESPOoCZAfUbuXyUEAAhCAQI0JIAo9cT6i0A9HUPT64Qes8JMA+eGnX7AKAhCAAAQg4EoAUehKMKf2iMKcQDp2Q9HrCJDmURMgP6J2L5ODAAQgAIEaE0AUeuJ8RKEfjqDo9cMPWOEnAfLDT79gFQQgAAEIQMCVAKLQlWBO7RGFOYF07Iai1xEgzaMmQH5E7V4mBwEIQAACNSaAKPTE+YhCPxxB0euHH7DCTwLkh59+wSoIQAACEICAKwFEoSvBnNojCnMC6dgNRa8jQJpHTYD8iNq9TA4CEIAABGpMAFHoifMRhX44gqLXDz9ghZ8EyA8//YJVEIAABCAAAVcCiEJXgg7tzxeRd0faN4tC+3cOQ9C0SwIUvV0C4/JaESA/auVuJgsBCEAAAjUigCisyNlTROQfROQdEblHRL48Ysfficg6EZkpIn8kIkcrsq+uw1L01tXzzDsNAfIjDSWugQAEIAABCIRHAFFYoc/+UkRWichJEfmXETt+T0QmiMhjIvIXFdpW16EpeuvqeeadhgD5kYYS10AAAhCAAATCI4AorNBnulr4zyJy9ogwHDfy9w9F5PdZJazEMxS9lWBn0EAIkB+BOAozIQABCEAAAl0SQBR2CSzvy3W18OsictZIxx+JyLdZJcwbc+r+KHpTo+LCGhIgP2rodKYMAQhAAAK1IIAorNjN9mqhmsIqYbUOoeitlj+j+02A/PDbP1gHAQhAAAIQyEoAUZiVXI7tzGqhdskqYY5gM3RF0ZsBGk1qQ4D8qI2rmSgEIAABCNSMAKLQA4frauGhETumcy9hpR6h6K0UP4N7ToD88NxBmAcBCEAAAhDISABRmBFc3s2+O9LhV/PumP66IkDR2xUuLq4ZAfKjZg5nuhCAAAQgUBsCwYnCG6ZPn/6nH3744R/99re//b3h4eGe2rgqoIn29PQMn3POOf9y9tln/8OhQ4e+LyI/CMT8EIveOT09PUumTZvWf/To0VlDQ0P6SBNeHhLo7e09OWXKlAOHDx8eGB4e3ioi+zw0cyyTQsyPwBBjLgQgAAEIQKASAsGIwi9Pmzbtqblz5378q1/96tQFCxbIrFmzZPz48ZVQY9CxCZw6dUoOHDggu3btku9+97tH9u7d+/7hw4dvE5G/85xdUEXv5MmTv3Pq1KmvLF26dNy111571rx582Tq1KmeI66veUeOHJE9e/bICy+88NGWLVtOjx8//nvHjh37WkBEgsqPgLhiKgQgAAEIQKBqAkGIwlVTp0596Jlnnpm0ePHiqoExfgYCO3bskFtuueX4kSNH7hWRxzJ0UVaTUIreT/T19b2yaNGimRs2bJiEECwrPPIbRwXiihUrju/cufOdwcHBL4rIb/LrvbCeQsmPwgDQMQQgAAEIQCBSAt6Lwq9ecMEF61977bVzP/nJT0bqg3pM65e//KV84Qtf+ODXv/71ahEx91D6Nvkgit6+vr6fr1ixYu4999zjGz/s6ZLAunXrZMOGDXsHBwc/1WXTKi4PIj+qAMOYEIAABCAAgcAJeC0K/21PT8//+elPf9rzmc98JnDOmK8Efvazn8lnP/vZ4eHh4YtF5P96SMX7ole3jPb39y959tlnJ3nID5MyELj55puPDwwMbA1gK6n3+ZEBP00gAAEIQAACEBDxVxROmzbtueXLl//J/fffj6MiIvDggw/Kxo0b/+vhw4dv9HBavhe9cyZMmPD2e++918uWUQ+jJ6NJupX0vPPOGzp58uSnPT98xvf8yOgBmkEAAhCAAARqT8BbUTipp6fn6MGDB3umT9dH9/GKhcChQ4dkxowZulqoz2c87tm8vC56e3p61i1fvvwbjz322FmeccMcRwKrVq36aOPGjd8aHh72eU+w1/nh6AKaQwACEIAABOpMwFtR+OXPfe5zz/3oRz/iKMUIw/Pzn//8kR//+Me6UujbaaReF716L+HAwMDcK664IsKoqPeUXn/9denv7/f93kKv86PeEcTsIQABCEAAAk4EvBWFq+68885HNm3adLbT9GjsJYFly5Z9+MQTT6zx8CRSr4ve3t7eEwcPHpzA1lEvw9rJKN1COmPGjJNDQ0MTnToqtrHX+VHs1OkdAhCAAAQgEDUBb0XhAw888MD93E8YZ/DpfYUPPPDAgyLygGcz9L3oPX36tJrIK0YC48aN02kl//P05Xt+eIoNsyAAAQhAAALeE0AUeu+iCA1EFGZ2KqIwMzr/GyIK/fcRFkIAAhCAAAQiJYAojNSxXk8LUZjZPYjCzOj8b4go9N9HWAgBCEAAAhCIlACiMFLHJtPat2+fLFu2TDZt2iRz5szxZqqIwsyuQBRmRud/Q0Sh/z7CQghAAAIQgECkBOIThQ899JDcd999o/y1bds2ufFGt8fiDQ4Oyh133KH3wpUisJ577jnZv3+/3Hvvvalir5V92sesWbPk8ssvT9VHq4u6tSPNQIjCNJRaXoMozIzO/4aIQv99hIUQgAAEIACBSAnEKQrVWUZM+bpa1imguhVjreb5q1/9Si688MJOQ435+27tSDMYojANJURhZkqBNkQUBuo4zIYABCAAAQiETyB+UXjixAlZuXKlLFmyRA4cOCC7du1K/tR/X3311ckK4ksvvSTz5s2T7du3J6uAKrCuv/562bNnT+Pn06dPb6wUzpw5M+nz6aefHtVOBZTpX/tcu3ZtIk6NDXq9vm699VZ5/PHHZffu3bJ58+bkZ5dccsmoVcF2fem1+rubbropaaeroIsXL27YY/c9f/785Bpjx5tvvtkY7wc/+EHDjokTR5+Cr9dpW2WycOFCmTJlSmKbzeWqq65K7Ojr6+s6DRCFXSMzDVgpzIzO/4aIQv99hIUQgAAEIACBSAnELwrtFbS33npLtm7dmoiZSZMmNcSibq9UIaS/U7G2fv16mT17diIYzUrZbbfd1hCFzz//fBIPKpS0nW5Z1etefPHFRv+HDh1q3M93zjnnJNdfcMEFYm/z1Gtuv/32hhi1g0z7e/TRR5PfqSBVW8zqpxlPrzc/12vM/YP6c/N3I2AXLFiQbCU149l92ttL1T7T56WXXpowOv/888WevwpnlxVERGHmtxNEYWZ0/jdEFPrvIyyEAAQgAAEIREogTlHY7p5Cs/qmwu/48eONVULjXLNaqGLNrJSZ1UMj5u6++27ZsmVLstKoYsoWeSo6daXQ9G/fg2ivFtrjGIHXvOJm26oreXqdClV92fcamp9fdtllDSGo9huBq22NgLvyyisbArZZFBsGtshVm0zb6667rrF6aq7NulqIKMz8doIozIzO/4aIQv99hIUQgAAEIACBSAnEKQrVWa0OaGkWhZ0OjjHbNHVLpva3evVqySIKjch84403ZO7cuY0VR/15SKJQD9nR7a5ZtozaCYQozPx2gijMjM7/hohC/32EhRCAAAQgAIFICdRXFKpDzdbI5m2gTz31lOiqmr2t1IhCFUZjbR9ttVJor9zpfYRmC2cnUVjE9lEjQtutFI61fVS3leoKqdlWa+bafE9ip2RBFHYi1Pb3hYnC5vte1QL7PtuxLDar1d2e8Ot6oq99j6uxz9xTO1ZMumx9zuy5FA0/o8vpAAAgAElEQVQRhSkgcQkEIAABCEAAAkUQqK8o1KLRCKDmg2Za/bybg2aat4+a+/d0nLvuuks++OCDRFzpa6yVwp07dybX6KEw5rAY/XfzQTNajBub9b5Bc4hNq4NmOolC7Z+DZorItVz6LFwU6r2nRtxpHLS759XMxohJu13ambqeDNzc3j5UaqzHsGgO6Cvt417Szsf1OkShK0HaQwACEIAABCCQkUB8ojAjCJqVSICVwsywSxWF5ksLc+hSq9Nn9XAlPQnXrCraX4C0O9FXV/MeeeQRWbNmTXKCr1nd0wOezP3A5n5VtUG3eeujVd5+++1RJ952EoX2lzumv7179yb3C+tLt3Obw5Tsk4TN4Ux6wJKxR691ed5nGo8jCtNQ4hoIQAACEIAABAoggCgsACpddiCAKMwcIqWLwlan79qnz+p9troNW1cKzaNRzCFM5kRfIwDNamKrw5FUTKqIu/jiixuPcNF+9B5ce9uyTa7V9lF9RIte37yCad9PrOJTX7pSaK8amkOWnnnmmeTnKgr1muZDnzJ7r0NDRGFRZOkXAhCAAAQgAIEOBBCFhEj5BBCFmZlXJgrbnT5rBJQKPvu5n2aGulqoq3AbNmwQvR9XBaV5tdo+qmLMXp0zolDFWfNKXbuVQmOLfZCUXmsOStJ7hvVlBG3zScLmMCkjYu3H1XR7/2w3nkYUdkOLayEAAQhAAAIQyJEAojBHmHSVkgCiMCWoMy8rXRTaq3qtTp+1V+RUFLY60bfdgTK2qNOpXn/99ck9t/aKYzeiUPtot7KJKMwcc3bD0yIyLpee6AQCEIAABCAAAZ8IIAp98kZdbEEUZvZ0qaLQPmjG3CvYfPqsvTXUiDmz7bJ5O6a9fVQJ6OrjsmXLZNOmTQkQIzr1VF4ViE8++WRj+2i3K4XGFjNmlu2jrBSeEaeIwsypS0MIQAACEICA1wQQhT65p92KiuvR/T7NUW1BFLb1yNdF5K9E5GibKwoXhbrV07yaH0nR6qAZfWalriYODAzI9u3bpd1BM60OfdFx9P4/PTG3+eCZc889Nzm8xmxJbScKVTzu2bOnYbP9SIpWY6q95vTeTgfNIAoRhb69d2IPBCAAAQhAoCACiMKCwGbqNjbx1w4CorBteBwXkY+JyLdG/msWh4WJwkwBS6NcCXBPYa446QwCEIAABCAAgfQEEIXpWZ15pb1yYq9Q2Idl2Efhb926VXQFRB9Kr9f39/fLwoULRx3nb47f12vsY/7NvVrmuHyzomPG3b17t2zevDkx8pJLLvHuGWw2PURh26hbKSLrRu7b0nu39JhMFYhGHCIKXRLW87aIQs8dhHkQgAAEIACBeAkgCrP6tvnIe3Mgh253a3W0vo6jz0fTLWvm8Aw9TdE+0t9sldOf20fh69/1Or3n6pxzzklMvuCCC5JxjFjU+7A6PWg861zzbocoHJPoIRHpG7nixIhANOLwg9On9bYuXjESQBTG6FXmBAEIQAACEAiCAKIwq5s6bfVsPlpfx9Gf6f1MkyZNSp7tZo7CtwWl3mNl7p8yJyauXbs2OabfHOlvBKn9wG0VhaZ/vW/K59eIKPTZxKptGxaRHsuIIRHZISI3IAqrdk1x4yMKi2NLzxCAAAQgAAEIjEkAUZg1QMY6Zr/V0fp5iUIVf/aKo71SGJgofFAPnMzKv6B2PpyuyEphQc71vVtEoe8ewj4IQAACEIBAtAQQhVld22r7qPalx+y3Olq/G1E41vZRFYV6b+Ljjz8ueh+h2TIa4EohovDM4FshIg9zT2HWrAy7HaIwbP9hPQQgAAEIQCBgAohCF+e1OvLebA3VrZ16CIw5Wl+P3U+7fVRFoW4XbXXQjH3kvz7o+4MPPki2odqiM5Dto4jCM4OvlqePdtqK7ZKj2tZ8gWO2a7v2V1R7RGFRZOkXAhCAAAQgAIEOBBCFhEj5BDhopi3zyp5TWH4UlDciojA31j5sr85tMnQEAQhAAAIQgECDAKKQYCifAKIwM/PKH0mhByXpw+J1hVpXw/UQJD0Y6c033xz1SJTbbrsteTD9Sy+91FjxnjNnjtiPcen0yBXze22n4+7atUsOHDiQ9GnGtQ9dUqqtHg1zww03JMD1/ltdhVdb9b5cfZl+Mnskx4asFOYIk64gAAEIQAACEOiGAKKwG1pcmw8BRGFmjl6IQn2G5vbt28VsZVZRqC9zf6t5lqbZrqkizNwHu379epk9e3YiGFXo7d+/X1RAmgOTnn/++aQvIzTNlusXX3wx6UPb6P2zy5Ytk02bNo35iBbTVq/Xw5+efPLJxGbT1ti5YMGCxJ6qX4jCqj3A+BCAAAQgAIHaEkAU1tb1FU4cUZgZvheiUIWcEYLmcSr2PbM6O7NKaGZqVv3M6bn2KqC5p/Duu++WLVu2NB7VYt9r+NZbbyUrhXrA0vHjxxsiUlcRWz2ixRaX9vZRtccI1IkTJzaEqZlPZs/k0BBRmANEuoAABCAAAQhAIAsBRGEWarRxI4AozMwvGFFoVv5UtLV66YrfTTfdlGz3VEG2evVqySIK2z2iBVGYOcbGasg9hYVgpVMIQAACEIBA5QTCFIX2djT9tj+Ul1lVybJVrco5u9jdyjeIwswR64UoNNs4dRYay/aqoYo9cwLv+eeff8Y20KeeekquvPLKxr192pcRhfool7G2j7ZaKUzziBa2j2aOt+aGiMLcUNIRBCAAAQhAwCsCYYpCrxCmNKb5uYYpmzUuq0oUutqNKOzW02Ne74Uo/P73vy8HDx5MDpyxD5ox9/DpI1Hsx7U0bxVtPoBG7/MzK4vmPj89xKbVQTPN20fbPaJFD5RRe/TRLhw0k1sMIgpzQ0lHEIAABCAAAa8IhCkKjUB65JFHZM2aNaIrElr86euNN95IViFa3Wdkis8LL7xQ3n777eR+Il25MG23bduWrHyY/vUZg3qohm5x6+/vl4ULF55RqOoWOH2Z4tjcB6VjaFtT2Oo9UXqt+Xe74tcOD/ukRu3/3XffTe6p0tVRU/Dq9cZuu+1Yp0S2el6itt28eXPSxQ9+8IPGKY47duwYZbddhF911VUJQxUBZjugtrdPgEQU5prwXohCs2IX0ip9rl4oqDPuKSwILN1CAAIQgAAEINCJQDyiULegmWPrVTipmDHF6+7du5PDJfSaW265JTnIwj79UH9uH2rRfJ+SXqtCU+97WrlypehphXqwhjmwQinrz7XfuXPnJn2bMVSA6ctuq783P28+ZdE8eL55hU6vN6JQ52YO+2j34G9l0e6UyHai0JweaZ8qeemllzbmvHjx4sbfDT9lbG//az55ElHYKQe7+j2isCtcYV2MKAzLX1gLAQhAAAIQiIhAHKLQHCnf7uh74zCzpU1FjL29zHaorrrZJyma+6PM8frm/jptY1YJTXtdzTPPZzNjmGP3bVFoxJXps5Ww01VCc3S+HtbRPDezumnGbl4tNOOOdUqkPTftp5VYtEXh1VdfPerUR7VR7wPTFUaz4tpplVDH4Z7CzG8hlYvCzJbTsCMBRGFHRFwAAQhAAAIQgEAxBBCF5plpNl8VYK0EkhGS2kZf9tH87YRnUaKwld32HMoWhbrCaW/ZbbWl1diHKMyczYjCzOj8b4go9N9HWAgBCEAAAhCIlEC8orB5+6iKvCeeeELuvPPOZLujCjwVTmlPUmxeKdTVxOaHdeuKpa6mmRMZzRgqHvPePtrKbh3PvNrNzX54t15rHuqtf++0UjjW9lFt+/DDDyf3F3Y6rRRRmPntBFGYGZ3/DRGF/vsICyEAAQhAAAKREohXFDYfxqIH0Jj7/YwoNEKo1UEznVYKzT11rQ6aaSUKdUztc2BgQLZv3y5lHDTT6pRIezXPPpWxnSg0q6PG7nYHzejq6vz585M86bSFFFGY+e0EUZgZnf8NEYX++wgLIQABCEAAApESCFMURuqMXKdlH7rj2ymRiMLMrkYUZkbnf0NEof8+wkIIQAACEIBApAQQhZE6dtRJrIjC1F72/TlsiMLUrgzvQkRheD7DYghAAAIQgEAkBBCFkTgyqGmwUpjZXYjCzOj8b4go9N9HWAgBCEAAAhCIlACiMFLHej0tRGFm9yAKM6PzvyGi0H8fYSEEIAABCEAgUgKIwkgd6/W0EIWZ3YMozIzO/4aIQv99hIUQgAAEIACBSAl4KwpX3XnnnY9s2rTp7EjB13pay5Yt+/CJJ55YIyKPeQbC63sKe3t7Txw8eHDC1KlTPcOGOa4Ejhw5IjNmzDg5NDQ00bWvAtt7nR8FzpuuIQABCEAAArET8FYUfvlzn/vccz/60Y+ofiMMwc9//vNHfvzjH98oIn/n2fS8Lnr7+vp+PjAwMPeKK67wDBvmuBJ4/fXXpb+/f+/g4OCnXPsqsL3X+VHgvOkaAhCAAAQgEDsBb0XhpJ6enqMHDx7s0efi8YqHwKFDh3RFZHh4eHiKiBz3bGZeF709PT3rli9f/o3HHnvsLM+4YY4jgVWrVn20cePGbw0PD9/j2FWRzb3OjyInTt8QgAAEIACByAl4Kwpl2rRpzy1fvvxP7r///sh9UK/p6f2EGzdu/K+HDx/WlULfXr4XvXMmTJjw9nvvvdfLFlLfQie7Pbp19Lzzzhs6efLkp0VkX/aeCm/pe34UDoABIAABCEAAApES8FcUisi/7enp+T8//elPez7zmc9Eyr9e0/rZz34mn/3sZ3WV8GIR+b8ezt77onfy5Mnf6e/vX/Lss89O8pAfJmUgcPPNNx8fGBjYeuzYsa9laF5mE+/zo0wYjAUBCEAAAhCIiIDXolA5f/WCCy5Y/9prr537yU9+MiLu9ZvKL3/5S/nCF77wwa9//evVIvJdTwkEUfTqvYUrVqyYe889Pu809NTDnpm1bt062bBhg+/3EhpqQeSHZy7GHAhAAAIQgEAIBLwXhQpx1dSpUx965plnJi1evDgEqNjYRGDHjh1yyy23HD9y5Mi9Hp44alsbStH7ib6+vlcWLVo0c8OGDZPYShpeyumW0RUrVhzfuXPnO4ODg18Ukd8EMItQ8iMAlJgIAQhAAAIQ8IpAEKJQiX152rRpT82dO/fjX/3qV6cuWLBAZs2aJePHj/eKJsb8jsCpU6fkwIEDsmvXLvnud797ZO/eve8fPnz4Ng9PG212WVBFr24lPXXq1FeWLl067tprrz1r3rx5gkD0NwtVCO7Zs0deeOGFj7Zs2XJ6/Pjx3wtgy2iIX5r4GwRYBgEIQAACEPCTQDCi0OC7Yfr06X/64Ycf/tFvf/vb3xseHu7xk2u9rerp6Rk+55xz/uXss8/+h0OHDn1fRH4QCJGgROEI0zk9PT1Lpk2b1n/06NFZQ0NDEwJhXTsze3t7T06ZMuXA4cOHB4aHh7d6fqhMK/+EmB+1izMmDAEIQAACEMhAIDhRmGGONIFAagIUvalRlXIh/igFc+pB8EdqVFwIAQhAAAIQCIoAojAod2Fs0QQoeosm3F3/+KM7XkVfjT+KJkz/EIAABCAAgWoIIAqr4c6onhKg6PXLMfgDf/hFAGsgAAEIQAACcRJAFMbpV2aVkQAiJCO4gprhj4LAZuwWf2QERzMIQAACEICA5wQQhZ47CPPKJUDRWy7vTqPhj06Eyv09/iiXN6NBAAIQgAAEyiKAKCyLNOMEQYCi1y834Q/84RcBrIEABCAAAQjESQBRGKdfmVVGAoiQjOAKaoY/CgKbsVv8kREczSAAAQhAAAKeE0AUeu4gzCuXAEVvubw7jYY/OhEq9/f4o1zejAYBCEAAAhAoiwCisCzSjBMEAYpev9yEP/CHXwSwBgIQgAAEIBAnAURhnH5lVhkJIEIygiuoGf4oCGzGbvFHRnA0gwAEIAABCHhOAFHouYMwr1wCFL3l8u40Gv7oRKjc3+OPcnkzGgQgAAEIQKAsAojCskgzThAEKHr9chP+wB9+EcAaCEAAAhCAQJwEEIVx+pVZZSSACMkIrqBm+KMgsBm7xR8ZwdEMAhCAAAQg4DkBRKHnDsK8cglQ9JbLu9No+KMToXJ/jz/K5c1oEIAABCAAgbIIIArLIs04QRCg6PXLTfgDf/hFAGsgAAEIQAACcRJAFMbpV2aVkQAiJCO4gprhj4LAZuwWf2QERzMIQAACEICA5wQQhZ47CPPKJUDRWy7vTqPhj06Eyv09/iiXN6NBAAIQgAAEyiKAKCyLNOMEQYCi1y834Q/84RcBrIEABCAAAQjESQBRGKdfmVVGAoiQjOAKaoY/CgKbsVv8kREczSAAAQhAAAKeE0AUeu4gzCuXAEVvubw7jYY/OhEq9/f4o1zejAYBCEAAAhAoiwCisCzSjBMEAYpev9yEP/CHXwSwBgIQgAAEIBAnAURhnH5lVhkJIEIygsup2ddFZK2IrBGRjSJi/LFcRP5SRO4VkW/nNBbddE+A/OieGS0gAAEIQAACIRBAFIbgJWwsjQBFb2moWw40RUQGReSYiAyJyAwROSgivSIyWUT6RORotSbWenTyo9buZ/IQgAAEIBAxAURhxM5lat0ToOjtnlneLXRFcLWIjB8RgCoUT4nIehH5i7wHo7+uCJAfXeHiYghAAAIQgEAwBBCFwbgKQ8sgQNFbBuWxx1AR+M8icrZ12Yci8vusElbuHPKjchdgAAQgAAEIQKAQAojCQrDSaagEKHr98JyuFur9hWeJyEcj9xGySli9b8iP6n2ABRCAAAQgAIEiCCAKi6BKn8ESoOj1w3X2aiGrhH74RK0gP/zxBZZAAAIQgAAE8iSAKMyTJn0FT4Ci1x8XmnsLuZfQH5+QH/74AksgAAEIQAACeRJAFOZJk76CJ0DR648LdbXweyLyFe4l9MYp5Ic3rsAQCEAAAhCAQK4EEIW54qSz0AmEWPTO6enpWTJt2rT+o0ePzhoaGpoQuhNitb+3t/fklClTDhw+fHhgeHh4q4jsC2yu5EdgDgvJ3AjyIyTc2AoBCECgmQCikJiAgEUgqKJ38uTJ3zl16tRXli5dOu7aa689a968eTJ16lQc6imBI0eOyJ49e+SFF174aMuWLafHjx//vWPHjn3NU3NbmUV+BOSs0EyNID9CQ469EIAABGwCiELiAQIBisJP9PX1vbJo0aKZGzZsmIQQDC+GtQBesWLF8Z07d74zODj4RRH5TQCzCEUUkh8BBNNYJgaaH4FTx3wIQKDmBBCFNQ8Apj+aQBBFb19f389XrFgx95577sF/gRNYt26dbNiwYe/g4OCnApgK+RGAk2IyMbD8iAk9c4EABOpHAFFYP58z4zEIeF/06pbR/v7+Jc8+++wkPBkHgZtvvvn4wMDA1gC2kpIfcYRcULMIKD+C4oqxEIAABJoIIAoJCQhYBHwveudMmDDh7ffee6+XLaPxxK1ulTvvvPOGTp48+WnPD58hP+IJu2BmElB+BMMUQyEAAQi0IIAoJCwgEIoo7OnpWbd8+fJvPPbYY2fhtbgIrFq16qONGzd+a3h42Oc9wV6LQvIjrpywZxNIfsTrAGYGAQjUgQCisA5eZo6pCXhd9Oq9hAMDA3OvuOKK1BPiwjAIvP7669Lf3+/7vYXkRxjhFJ2VgeRHdNyZEAQgUCsCiMJauZvJdiLgddHb29t74uDBgxPYOtrJjeH9XrfIzZgx4+TQ0NBEj60nPzx2TsymBZIfMbuAuUEAAvETQBTG72Nm2AUBr4teETl9+rSayCtGAuPGjdNpJf/z9EV+eOqYOpgVQH7UwQ3MEQIQiJcAojBe3zKzDAQoejNAo0k+BAIoesmPfFxNLxkIBJAfGWZFEwhAAALeEEAUeuMKDPGBAEWvD16oqQ0BFL3kR01j04dpB5AfPmDCBghAAAJZCSAKs5KjXZQEKHqjdGsYkwqg6CU/wgilKK0MID+i5M6kIACB2hBAFNbG1Uw0DQGK3jSUuKYQAgEUveRHIZ6n0zQEAsiPNNPgGghAAAK+EkAU+uoZ7KqEAEVvJdgZVAkEUPSSH4RqZQQCyI/K2DAwBCAAgRwIIApzgEgX8RCg6I3Hl8HNJICil/wILqriMTiA/IgHNjOBAATqSABRWEevM+e2BCh6CY7KCARQ9JIflUUHAweQHzgJAhCAQMgEEIUhew/bcydA0Zs7UjpMSyCAopf8SOtMrsudQAD5kfuc6RACEIBAiQQQhSXCZij/CVD0+u+jaC0MoOglP6KNPv8nFkB++A8RCyEAAQi0J4AoJDogYBGg6CUcKiMQQNFLflQWHQwcQH7gJAhAAAIhE0AUhuw9bM+dAEVv7kjpMC2BAIpe8iOtM7kudwIB5Efuc6ZDCEAAAiUSQBSWCJuh/CdA0eu/j6K1MICil/yINvr8n1gA+eE/RCyEAAQg0J4AopDogIBFgKKXcKiMQABFL/lRWXQwcAD5gZMgAAEIhEwAURiy97A9dwIUvbkjpcO0BAIoesmPtM7kutwJBJAfuc+ZDiEAAQiUSABRWCJshvKfAEWv/z6K1sIAil7yI9ro839iAeSH/xCxEAIQgEB7AohCogMCFgGKXsKhMgIBFL3kR2XRwcAB5AdOggAEIBAyAURhyN7D9twJ1Kbo3bdvn1x//fWyZ8+eURC3bdsmN954Y1dg33zzTdm6das8/vjjMnHixK7amou1j/nz5zfavvHGG3L55Zdn6iuvRoODg3LHHXfIAw88IHPmzMmr27b9BFD0Vp0fXxeRvxKRo20gnj59Wk10ez300ENy3333jerk1ltvzRTfJjceeeQRWbNmjSxZsmRUXJ84cUJWrlx5xs9bzcBc+/TTTye/zmqTG50zWz/33HOyf/9+uffee/PuelR/AeRHofOncwhAAAIFE0AUFgyY7sMiUHXR24lWLkWvDqKicNmyZbJp06ZSBM9YE9OiUkWl/tnX1ycqxlSYapFZpTBEFJ7htarz47iIfExEvjXyX7M4zCU/VBTqy4icPOKxG/HXKleMDSoqzZc2mi+7du3KJFY7vdF083tEYTe0uBYCEICAtwQQhd66BsOqIFB10dtpzrkUvZ1EoRFDF154oTz66KMyb9482b59e2Kbrppt3rw5EW+mKL3uuuvk+eefT4rTd955Z9QKpK48Ll68OFkNOf/882VgYCDpy6y8tSuW1YZDhw4l15mC+KWXXpKrrroqGVdfuor3hS98IVkxURuffPJJ0YJerzMrns0ros32mBUhszJpr8Zov++//35jpVDHvemmm5Kxs6yodnJuACshVefHShFZJyLjRv5b3yQOc8mPZlGoftOfzZ49OxFkdjya3NA4tWPNrOLt3r07+cLDrBRqDtgxd+mllzZWCnUczS19XXLJJaNW3lqtxmusar7NnDkzWaFvFZ/6M90N8MEHH4iuMK5duzaZh8axySXNZXt1tDnHmt8HdK5mZV/nv3DhQpkyZUpib6tc1f7zeAWQH3lMkz4gAAEIVEUAUVgVecb1kkDVRW8nKLkUvUYUtto+quJo7ty5SfFrViVMkbx69epRW93051deeWVis9k+qoWxFo1apDZvndOCuHmLWacVSyPSFixYkNhkhKj2c8sttyQrifp3tUXH09+/+OKLjRWUNPbYKy47duxotNWC/vbbb09ErApUHcMI0iJWMgMoen3Ij0MiYlTGiSZx+EFe20c1plutFNoiTmOvOcZNnBoROWvWrFGiUPvVL080tvSaZ555JvlTc01fJt6atyu3Eqr2m4Xa0So+Dxw4kHyxY77U0Zy/66675Oqrr26sxmu+q5i7+OKLxf6Spt37wG233dZoa3hobpv3h+ZcddlWbs8xgPzo9P7N7yEAAQj4TABR6LN3sK10Aj4UvWNNOldR2G77aPN2OXt7mBFFWlR+85vflIcfflj27t076p7C5hUTs0piikV7gp22aDb/XvvW1Upd8bjzzjsbW0xtG5tXVTrZ066wt8d+6623Rt03Za8c5RWlI0VvXt3F3M+wiPRYExwSkR0ickNeorD5nkKNt+aVMDO+rpbpKtyGDRvOuP+0U2zdfffdsmXLloYoNMKueXWt0xbN5t+b+FQbzRbT48ePN+6R1dXF5nsZ7dVC+8shs43bjKFfBNl2mp+rWLTvwTW5anYWuAYkotCVIO0hAAEIjEkAUUiAQMAigCgUOeOePrvg1EJPVze+9KUvyU9+8pOkULZF2Pr16xsrdkYsjiUK220fNX1q/7oCYQ576VYUprGnU+GuY5coCnVrpK8vH/Kj1JXC5i9I2n2J0e7nnWIrrShst33UCDtdEbQPe+lGFE6fPj3Z8q0riGart65cmpVCRKGv6YhdEIAABHIlgCjMFSedhU7Ah6LX65VCFXH3339/cp+SrqbYW+h0m5iKMHPvlRam7777buN+qlYrhTrZsQ6aMdvT2m0fbS5YW4nUTvbYBTfbR8f+FnFku2ZVeb5CRB4u+55Ce4uzWWEzW6HNtk2zDdTePqqQdFXNvqdQfzbW9tF2K4WdDpox21GbtzerWOy0Uqii0NwrrNukVSDq/bntRCHbR6sKf8aFAAQgUCgBRGGheOk8NAK1EoWt7inUAzLM/XqtBJc61L5/Sbe52aJKi1PzaAndUvfaa68lQlGL3Xai0AhDc4iL/tt+JEW7g2bs+/rabR9NY49tv46tqy9qOwfNnJG+VedHJaePmvg09+apiNLY0wON7INmWsVp82r5ueeeKy+//HLypYrGePNBM+1Eodpg96//bn4kRbuDZjqJQmODiXm1Uedl33eoX/4055jmOQfNhPYRh70QgAAE2hJAFBIcELAIVF30dnJGbvcUdhqI35dPIIB7pqrOj1KeU1i+5xkxDYEA8iPNNLgGAhCAgK8EEIW+ega7KiFQddHbadKIwk6EAv59AEUv+RFwfIVuegD5ETpi7IcABOpNAFFYb/8z+yYCFL2ERGUEAih6yY/KooOBA8gPnAQBCEAgZAKIwpC9h+25E6DozR0pHaYlEEDRS36kdSbX5U4ggPzIfc50CIV4T88AACAASURBVAEIQKBEAojCEmEzlP8EKHr991G0FgZQ9JIf0Uaf/xMLID/8h4iFEIAABNoTQBQSHRCwCFD0Eg6VEQig6CU/KosOBg4gP3ASBCAAgZAJIApD9h62506Aojd3pHSYlkAARS/5kdaZXJc7gQDyI/c50yEEIACBEgkgCkuEzVD+E6Do9d9H0VoYQNFLfkQbff5PLID88B8iFkIAAhBoTwBRSHRAwCJA0Us4VEYggKKX/KgsOhg4gPzASRCAAARCJoAoDNl72J47AYre3JHSYVoCARS95EdaZ3Jd7gQCyI/c50yHEIAABEokgCgsETZD+U+Aotd/H0VrYQBFL/kRbfT5P7EA8sN/iFgIAQhAoD0BRCHRAQGLAEUv4VAZgQCKXvKjsuhg4ADyAydBAAIQCJkAojBk72F77gQoenNHSodpCQRQ9JIfaZ3JdbkTCCA/cp8zHUIAAhAokQCisETYDOU/AYpe/30UrYUBFL3kR7TR5//EAsgP/yFiIQQgAIH2BBCFRAcELAIUvYRDZQQCKHrJj8qig4EDyA+cBAEIQCBkAojCkL2H7bkToOjNHSkdpiUQQNFLfqR1JtflTiCA/Mh9znQIAQhAoEQCiMISYTOU/wQoev33UbQWBlD0kh/RRp//EwsgP/yHiIUQgAAE2hNAFBIdELAIUPQSDpURCKDoJT8qiw4GDiA/cBIEIACBkAkgCkP2HrbnTsDrore3t/fEwYMHJ0ydOjX3idNhtQSOHDkiM2bMODk0NDSxWkvGHJ388Ng5MZsWSH7E7ALmBgEIxE8AURi/j5lhFwS8Lnr7+vp+PjAwMPeKK67oYkpcGgKB119/Xfr7+/cODg5+ymN7yQ+PnROzaYHkR8wuYG4QgED8BBCF8fuYGXZBwOuit6enZ93y5cu/8dhjj53VxZy4NAACq1at+mjjxo3fGh4evsdjc8kPj50Ts2mB5EfMLmBuEIBA/AQQhfH7mBl2QcDroldE5kyYMOHt9957r5ctpF141fNLdWvceeedN3Ty5MlPi8g+j80lPzx2TqymBZQfsbqAeUEAAvUggCish5+ZZUoCvhe9Mnny5O/09/cvefbZZyelnBOXeU7g5ptvPj4wMLD12LFjX/PcVPLDcwfFaF5A+REjfuYEAQjUhwCisD6+ZqYpCHhf9Ooc9N7CFStWzL3nHp93GqagzSWybt062bBhg+/3EhpPkR/EbKkEAsuPUtkwGAQgAIGcCSAKcwZKd2ETCKLoFZFP9PX1vbJo0aKZGzZsmMRW0vCCTrfErVix4vjOnTvfGRwc/KKI/CaAWZAfATgpBhMDzY8Y0DMHCECgvgQQhfX1PTNvQSCUojcxXbeSnjp16itLly4dd+211541b948QSD6G9da6O7Zs0deeOGFj7Zs2XJ6/Pjx3wtgy6gNlPzwN7yCtyyC/AjeB0wAAhCoNQFEYa3dz+SbCQRV9I4YP6enp2fJtGnT+o8ePTpraGhoAm71k0Bvb+/JKVOmHDh8+PDA8PDwVs8PlWkFkfzwM7SisCqC/IjCD0wCAhCoLQFEYW1dz8RjKXrxJATKIhCiKCyLTRXj4I8qqDMmBCAAgTgJIArj9CuzykiAIisjOJrVggD54Zeb8Ydf/sAaCEAAAiETQBSG7D1sz50ARVbuSOkwIgLkh1/OxB9++QNrIAABCIRMAFEYsvewPXcCFFm5I6XDiAiQH345E3/45Q+sgQAEIBAyAURhyN7D9twJUGTljpQOIyJAfvjlTPzhlz+wBgIQgEDIBBCFIXsP23MnQJGVO1I6jIgA+eGXM/GHX/7AGghAAAIhE0AUhuw9bM+dAEVW7kjpMCIC5IdfzsQffvkDayAAAQiETABRGLL3sD13AhRZuSOlw4gIkB9+ORN/+OUPrIEABCAQMgFEYcjew/bcCVBk5Y6UDiMiQH745Uz84Zc/sAYCEIBAyAQQhSF7D9tzJ0CRlTtSOoyIAPnhlzPxh1/+wBoIQAACIRNAFIbsPWzPnQBFVu5I6TAiAuSHX87EH375A2sgAAEIhEwAURiy97A9dwIUWbkjpcOICJAf1Trz6yKyVkTWiMhGETH+WC4ifyki94rIt6s1kdEhAAEIQCBQAojCQB2H2cUQoOgthiu9xkGA/KjWj1NEZFBEjonIkIjMEJGDItIrIpNFpE9EjlZrIqNDAAIQgECgBBCFgToOs4shQNFbDFd6jYMA+VG9H3VFcLWIjLdMOSUi60XkL6o3DwsgAAEIQCBQAojCQB2H2cUQoOgthiu9xkGA/Kjej7pa+M8icrZlyoci8vusElbvHCyAAAQgEDABRGHAzsP0/AlQ9ObPlB7jIUB++OFLXS3U+wvPEpGPRu4jZJXQD99gBQQgAIFQCSAKQ/UcdhdCgKK3EKx0GgkB8sMPR9qrhawS+uETrIAABCAQOgFEYegexP5cCVD05oqTziIjQH7441BdLbxbRP5f7iX0xylYAgEIQCBgAojCgJ2H6fkToOjNnyk9xkOA/PDHl7pa+IGInMu9hP44BUsgAAEIBEwAURiw8zA9fwIUvfkzpcd4CJAf/vjymgkTJvx/J0+e/M8i8kN/zMKSmhC45qKLLtr8i1/84g7iryYeZ5p1IIAorIOXmWNqAhS9qVFxYQ0JkB9+OP0aEdl5//33y4MPPqgWLaIw98MxNbGC+KuJo5lm7QggCmvnciY8FgGKXuIDAu0JkB/VR0dSkO/cuVOuueYa+eEPfyiLFqkmRBhW75paWED81cLNTLKmBBCFNXU8025NgKKXyIAAotDXGBhVkBsjEYa+uis6u4i/6FzKhCAwigCikICAgEUAUUg4QABR6GMMtCzIEYY+uipKm4i/KN3KpCCAKCQGINCOAKKQ2IAAotC3GBizIEcY+uau6Owh/qJzKROCQEsCrBQSGBBgpZAYgEAqAnxpkgpTrhelKsgRhrkyp7N/JUD8EQ0QqA8BRGF9fM1MUxCg6E0BiUtqS4D8KNf1XRXkCMNynVOD0Yi/GjiZKULAXhgZJyJ80BMTEPgdAXKBSIBAewLkR3nRkakgRxiW56DIRyL+Incw04NACwKsFBIWELC/JRER/aKEFwQgcCYBRGE5UeFUkCMMy3FSxKMQfxE7l6lBYAwCiELCAwKIQmIAAqkIIApTYXK6KJeCHGHo5IM6Nyb+6ux95l53AojCukcA8x9FgKKXgIBAewLkR7HRkWtBjjAs1lkR9k78RehUpgSBLgggCruAxaXxE6Dojd/HzDA7AfIjO7tOLQspyBGGnbDz+xECxB+hAAEIIAqJAQhYBCh6CQcIsFJYdgwUWpAjDMt2Z3DjEX/BuQyDIVAIAURhIVjpNFQCiMJQPYfdZRAgP/KnXEpBjjDM33GR9Ej8ReJIpgGBHAggCnOASBfxEKDojceXzCR/AuRHvkxLLcgRhvk6L4LeiL8InMgUIJAjAURhjjDpKnwCFL3h+5AZFEeA/MiPbSUFOcIwPwcG3hPxF7gDMR8CBRBAFBYAlS7DJUDRG67vsLx4AuRHPowrLcgRhvk4MeBeiL+AnYfpECiQAKKwQLh0HR4Bit7wfIbF5REgP9xZe1GQIwzdHRloD8RfoI7DbAiUQABRWAJkhgiHAEVvOL7C0vIJkB9uzL0qyBGGbs4MsDXxF6DTMBkCJRJAFJYIm6H8J0DR67+PsLA6AuRHdvZeFuQIw+wODawl8ReYwzAXAhUQQBRWAJ0h/SVA0euvb7CsegLkRzYfeF2QIwyzOTWgVsRfQM7CVAhUSABRWCF8hvaPAEWvfz7BIn8IkB/d+yKIghxh2L1jA2lB/AXiKMyEgAcEEIUeOAET/CFA0euPL7DEPwLkR3c+CaogRxh259wArib+AnASJkLAIwKIQo+cgSnVE6Dord4HWOAvAfIjvW+CLMgRhukd7PmVxJ/nDsI8CHhIAFHooVMwqToCFL3VsWdk/wmQH+l8FHRBjjBM52SPryL+PHYOpkHAYwKIQo+dg2nlE6DoLZ85I4ZDgPzo7KsoCnKEYWdHe3oF8eepYzALAgEQQBQG4CRMLI8ARW95rBkpPALkx9g+i6ogRxgGl6DEX3Auw2AIeEUAUeiVOzCmagIUvVV7gPF9JkB+tPdOlAU5wtDndBxlG/EXjKswFALeEkAUeusaDKuCAEVvFdQZMxQC5EdrT0VdkCMMvU9P4s97F2EgBIIggCgMwk0YWRYBit6ySDNOiATIjzO9VouCHGHobboSf966BsMgEBwBRGFwLsPgIglQ9BZJl75DJ0B+jPZgrQpyhKF36Uv8ifzQO69gEATCJYAoDNd3WF4AAYreAqDSZTQEyI9/dWUtC3KEoTe5TPwtWqTO0P8hDL0JSwwJnACiMHAHYn6+BCh68+VJb3ERID9+589aF+QIw8qTmvhTJfjDH8oihGHlwYgBURFAFEblTibjSoCi15Ug7WMmQH4gCEfFN4V56emOILSQE3+lxx8Dxk0AURi3f5ldlwQoersExuW1IlD3/KAgbxHuFOalvQcQf8RfacHGQLUkgCispduZdDsCdS96iQwIjEWgzvlBQT5GZCAMC3/jIP6Iv8KDjAFqTwBRWPsQAIBNoM5FL5EAgU4E6pofFOSdIoN7vFIQynwJ8ZcCHV9MpIDEJRAYmwCikAiBgEWgrkUvQQCBNATqmB8dC/J9+/bJsmXLZNOmTTJnzpwGxxMnTsjKlStlyZIlcvnll6fhO+qa5557Tvbv3y+rV68e1c9DDz0k9913n/z5n/+5fOxjH5PHH39cJk6c2HX/2sDVxuZBKcwzuWGsRh3jL/cRA+6Q+AvYeZjuAwFEoQ9ewAZvCNSx6PUGPoZ4T6Bu+ZGqIC9KFKr409e9997bCIzBwUG544475IEHHhglQLNGTt6iUO2gMM/qjTPapYq/3EaLpCPiLxJHMo0qCCAKq6DOmN4SqFvR660jMMxLAnXKj9QFebMoNCt5N9xwQ+JEFXG6UqjXXX/99bJnzx656qqrRFcCze8vvPBCefTRR2XevHmyfft2OXTokMyfPz/5/SuvvCLPP/+8XHfddcmfTz/9dNJeVyf/9m//NlkpfOeddxp933rrrY3VQ2OL9mPG7Ovrk3Y2qui88cYb5aWXXmpp49tvv53YrX2M9aIwd87f1PHnPFKEHRB/ETqVKZVBAFFYBmXGCIZAnYreYJyCod4QqCI/dJlM917eKCKDIyT0Z/tF5HeqKv9XVwW5LQpVzKngUuGkf1cR+OSTT8rcuXNHrfCZraG33XZbIsJ0i6n+aa8Omr/b20ftfrT/rVu3yiOPPCJr1qyRBQsWNPqYPXu2XH311aIi7+KLLx61TVRxtbLx0ksvTbapmn7Uxl27diUrlbfcckvDxrS4Ky7MdT/t4yJy64i9e0TkehHZNxJPS0Rkpe6gTTufEq/rKv5KtCuooSqOv6BYYSwERgggCgkFCFgEqih6cQAEQiFQRX6oAFwrIjdZIrBIUdh1QW6LQl3J05cKKXtr5vTp0xsrecbZunL3xBNPyJ133plcr6uJRizqv9OKQr1WhWO7LaX2auEbb7whr776aksbm4Wrzkv7XLt27SgbuwnWCgtz/RJhgSX89N8qBO0vF7qZSlnXdh1/ZRkW4jgVxl+IuLAZAohCYgACiEJiAAKpCFQlCqeMWPfMyEqPLQrtFSF7NSjVhJouylSQpxWFKrA2b948auul2a5ZhCg021XvuusuWbx4ceOwmjJFofKtqDA3N2L+7sbM0S9defZxpTBT/GUJ9Dq1qSj+6oSYucZDAFEYjy+ZSQ4Eqih6czCbLiBQCoEq8sMU97q8daXufNSFOGv7qF38a7Gv/86yGpS5IE+7fdTeJtq8NdNFFLbaPqrRoPcgGiFqb2XV32XZPmpszBJpFRTmetOjbi++SkReaooJH0Vh6viz7021fbFt27Zk+3CrV94HFGWJgSxt8rK7gvjLMl3aQKBqAojCqj3A+F4RqKLo9QoAxkBgDAJV5Ict+vQesL9TvTMiCneM3De2VUTeFBEVAptF5IGRFcW0zkxdkLfq0PWgGS3kW4lCFY433XRT46AZve+w1T2FetDM8ePHzzggZtKkScnqoB5Mo4fPnHvuuclBNubeRX2sRfNhOO0OmrFtTAu1+boKC3NVSttE5OmR7aSXerZS2FX8tTvtdiy/ZGmT1c95tstLFKpNFcZfnkjoCwJFEkAUFkmXvoMjUEXRGxwkDK4tgSrywxaF+hDAW0bo61bRPERhVwV5bT2f08QrLMztLwymeyQKu46/TgLPfJmgLtMvA8xKsvlyQL9EWL9+ffKsS33Zp9Labu7mtNxWz+fUg4ueeuqp5LTdl19+WQYGBpIvKPQeVfueW/2ZOXVX+zH34hp733///cb9svbcxloZbReuFcZfThlENxAolACisFC8dB4agSqK3tAYYW99CVSRH833hplVH3PwjMv20a4L8vq6Pr+Zl1CYm/tM3x3ZbqzGqyh8WES+KSJzPRGFmeKv3fZRPUTIXkmeOXNm4z5SPehIH2GyadMm0b+3OpVWDzoyr+YVujSn5Zq2RtTpv1WA7tixI3ncinnUitm6rIJRXyoQ33zzzcaW5hdffDE59Vbb7t69W26//fYz2mq7rKvXJcRffslCTxAolwCisFzejOY5gSqKXs+RYB4EGgSqyI9mUWjuFdMto3rPWNaDZjIV5MRCPgRKKMztewrVaN8eSZE5/jqtFJrTZu3nVbZq03wqrS0KWwnPTqflNotC82gTFXz66BTzPE29z1VXKnV83RKt4xoRevfdd8uWLVsaj0Wxxelbb70l+/fvT0SkvrS9Pnql3X2UY0VqCfGXT6LQCwTKJYAoLJc3o3lOoIqi13MkmAeBSkVhEfgzF+RFGFPXPmtcmDvFXydRqPFkb8HUbZaXXXZZY6VQf6/Pz2w+lbZZFHZ7Wm5IolBtDS3+Tp8+rfXJmK9x48aN63QNv4fAGAQQhYQHBCwCiELCAQLtCcSQH04FOcGRL4HQCvMcZu8cf2OJQl1Z++Y3vykPP/xw8ugTs5rWLApbnUrbvH2029NyuxGF+miWqraP2j4MKf4QhTlkH110IoAo7ESI39eKQAxFb60cxmRLJRB6fpxRkOd5umE3nsgyrv1g+27GyuNal616ncYPqTBvMZevi8hficjRTvMUEWdBqGO0u6fQbBfV+/Dmz5+fmGN+Zk6nnTVr1hkHz9in0tpzaHfQTLvTcrsVhfbpuGUdNNPKR6HE3/Hjx0+b04R1HjYzs0X36aefnqQLxSlikUsg0IoAopC4gIBFIPSiF2dCoEgCIedHy4I8izjLA3CaLYDN41QlCs1WRHOPWB7zb+4jlMK8xdyPi8jHRORbI/+1E4e5CMIi2NNnGFtJt23bdtocwDNx4kTR9wO9V1P/1FVhfbF9lGh2JIAodARI87gIhFz0xuUJZuMjgVDzY1RBnvbIe3N0frMj9Ft5sxJjX9PquHzzkPoDBw7ISy+9lBzHv3r16lHPD9SHzH/3u99NhrnkkktG/d5eDWglCo2ovfDCC+Xtt99OCkQ9vVGfb6gvY59ZSdBVIT0JUleQ+vv7ZeHChaNWHFo9p9D0Z2zR0yt1tUjn0+5xBnY/9hzs1Sf752proMJQn525Tuvxkf/WtxCHCEIf382abPI9/tauXZvcU2gO2rHNZ6UwgAALw0REYRh+wsqSCIRa9JaEh2FqTiDE/DijIDdCrdWR9+aURPWzbtUypyMavxuxo4WZPofNXKO/N0ft69/NFjsVg+bb/EOHDo067MM8IkB/bo7d1+e0aT+m+Gs+qt8+fVGvMfaonTqmfdKjPQf9uwpZ89gCvVbvITMCVVcBFy9enMzHrAgaTuY5d2Ndoyx19UJfRnQbdrZNeuqkOTGylcj1vTBvk/+HRh55kUy/SRz+PyKyc+fOnXLNNRqKvHwm4HP8HTp06HS7L2MQhT5HVVC2IQqDchfGFk0gxKK3aCb0DwFDwCU/XhOR/1A2ytmzZx9ZsmTJVD1YwxYsRvg0H3lvVtiMnc2rhbrS1epUxmaBY+7B037Mli+9r+uOO+5I2uvLFoVGUJr7rJqP6tc2zUfy26JQRaqKPHu10p7DlVde2RCtzWMYW6+++uqGfSpOzVzN4wOUWbtr9OAQs4XNXiU0NphVQRXAKk6bVwntuNC5bt269cj+/funlh0vDuMNi0iP1X5IRHZcdNFFf/wnf/Ins4zPHfqnaUkEfI0/+/BRk+f2faT65dPTTz9dEqXSh/mfIvKF0ket34CIwvr5nBmPQcCl6AUsBGIn4JIfLm1duLbcOtpOFDavxDUPHIIobDUHe8WxDFFoxK+Ky1av5qLWrDL6vFIzRhCyUuiSoR619Tn+mk8ftb/Q0i9bRkRhrAfNVPX54VF0lmIKorAUzAwSCgHeeELxFHZWQcAlP1zaus51lDAca/uo2cY5c+bMUVspjQGtto+qwNRTHdttH+1mpdA8RkDH09W/tNtHzUqhXt9qDrZ97URh3ttHzz///DPmoI8h0FVLXdW0t5WqKPS5IB8jAFeIyMPcU+iaotW39zz+Jt56663HTU4pLfvxI3v37kUUVh9CMViAKIzBi8whNwJVFq65TYKOIFAQAZf8cGmbx3QawlBFiTnaXbdfvf/++8mWTl3Vsrdftjtoxj4sxWzfMqcBmu2n+sBwvf/HFqD29lFzWIuKNT1o5lvf+lbjFEH7IJw0B83YjwhQUK3mkGalUPtpddCMEaoDAwOyfft2cTlopt0BNJ4X5GPFX5Cnjxb5iBGFZa+o60FFnVbgWwG280B/3y4f83hzCCH+7HsKdc41eyRF1Z8feYRZCH0gCkPwEjaWRoA3ntJQM1CABFzyw6VtXqg4BTIvkjn2E0JBPsZ0S39OoSv6Mh4xYn8JYe417dZu/XJDX/plRfPhRd32Ndb1ocRfzR9e78PnR55h52tfiEJfPYNdlRDgjacS7AwaCAGX/HBpmycehGGeNB37CqUgd5ym3byQ+NOVv/vuuy8ZxzwmxAgq+xAiXbHT0191RXusR4yYLcZ6wq5u+d2zZ4+8/PLLoqvFepiJWbWzV811PF0h18OIzCmZep2OZ1YKu3mcSzNznaPZepyXP0KKP0Rh8tgXXsUSQBQWy5feAyPgS+EaGDbMrQkBl/xwaZs33kIK87yNjL2/kArynH2Ra/zpllz97+KLLx61ojZ37tzGo1HMybQqzrp5DInOWx83smPHjuT5lrp9WA81MffP/upXv0q2Xev2afse0d27dzeuMdtHb7vttoY9aR7nojabl/2Ylrx8EVr8IQoRhXnF/hj9IApLgMwQ4RDwqXANhxqW1oWAS364tC2Cb66FeREGxtxnaAV5Ab7IPf7s1UL7eZTNK4W2KEzzGJLm51++8847ox7L0uoe21aiUO+d7eZxLjquvlo9z9LVH8SfK8HS2/v2+VE6gJIGRBSWBJphwiDAG08YfsLKagi45IdL26Jmm3thnoehWmSbZxi2e6RDHuNU1QcFeYN8LvFnRNldd90l5gRZfc5lmpVCV1GoW0t1hVCFmzkBU1cW8xSFeW8bJf6qynyncX38/HCakKeNEYWeOgazqiHAG0813Bk1DAIu+eHStkg6uRTmeRqoBbaeSmq2z5nnkd19992yZcsWMQ+2N2OmPYTDvp9rrIfH5zmX5r4oyM+g6xx/9kmfurXz+uuvlyeffFLMFk19ZIoRi/pIg262j5rnedpbQ+2VQhWFes+gruqpeHv33XeT7aZpt4+O9TgXe/toXjFJ/OVFsvR+fP38KB1EwQMiCgsGTPdhEeCNJyx/YW25BFzyw6Vt0bN0LszzNFDv07rwwgsbXdoPqW61cphGFNrPNNPTIJufEZin/e36oiBvS9kp/uxHN+gjUs4999zkEBnzSBRzqMzChQtlypQpybMjVcCN9YgRc9BMJ1Goq4Pz589PJqYH0Lz22muyefPm5L5DFaf9/f2jDprp5nEuhlZeK4XEXxlZXtgYPn9+FDbpCjpGFFYAnSH9JcAbj7++wbLqCbjkh0vbMmbuVJh3Y6C9sqMCzX6W4fr161ueInnHHXdI80qhuYfshhtuSIbXa3R1pd2zBm0b1YZnnnlGHnzwweSQkKJfFOQdCZcWfx0tifAC4i94p/r++RE84JEJIApj8STzyIUAbzy5YKSTSAm45IdL27JwllKYN6/smZUQvQes3SmSzaJQgZgTINttGTQrRbt27Uq29BnxV/Y9ixTkqcO3lPhLbU0kFxJ/UTgyhM+PGEAjCmPwInPIjQBvPLmhpKMICbjkh0vbMlGWUpibB3PrQR/f/OY35eGHHxbzkO9Wp0g2i8JXX301YaJbAW2RqcJSr9VTHnWrafOqZKetqHmDpiDvmmgp8de1VYE2IP4CddyZZofy+RE6cERh6B7E/lwJ8MaTK046i4yAS364tC0bY+GFudm++aUvfUl+8pOfJOJurFMk8xKFZW4bpSDPHLaFx19mywJqSPwF5KzOpob0+dF5Nv5egSj01zdYVgEB3ngqgM6QwRBwyQ+XtlUAKrQw19W9+++/X/bs2ZPcQ6j3ArY7RdKs/tn3FCqQrNtHy4BJQe5MudD4c7bO8w6IP88d1L15oX1+dD9DP1ogCv3wA1Z4QoA3Hk8cgRleEnDJD5e2VcEotDDXE0CNsNOto+1OkTTPksvjoJkyVgopyHML10LjLzcrPeuI+PPMIfmYE+LnRz4zL7cXRGG5vBnNcwK88XjuIMyrlIBLfri0rXLSFOZd0Kcg7wJWukuJv3SckquIvy5g+X3p10VkrYisEZGNImI+P5aLyF/q7dQi8m2/pxCkdYjCIN2G0UURCLVwLYoH/ULAJuCSHy5tq/YChXkKD1CQp4CU7RLiLwU34i8FpHAumSIigyJyTESGRGSGiBwUkV4RmSwifSJyNJzpBGMpojAYV2FoGQRCLlzL4MMY9SbgPFidwAAAIABJREFUkh8ubX2gTmE+hhcoyAsPUeKP+Cs8yDwbQFcEV4vI+BEBqELxlIisF5G/8MzWWMxBFMbiSeaRC4HQC9dcINAJBNoQcMkPl7a+OITCvIUnEISlhSfxR/yVFmweDKQi8J9F5GzLlg9F5PdZJSzMO4jCwtDScYgEYihcQ+SOzWEQcMkPl7Y+0aEwt7yBICw9NIk/4q/0oKtwQF0t1PsLzxKRj0buI2SVsDiHIAqLY0vPARKIpXANED0mB0DAJT9c2vqGhsKcQz2qjEnij/irMv7KHNteLWSVsHjyiMLiGTNCQARiKlwDwo6pgRBwyQ+Xtj7iqXVhzgph5SFJ/C1apE7Q//2wcm9gQJEEzL2F3EtYJOXf9Y0oLJ4xIwREILbCNSD0mBoAAZf8cGnrK5paFuYIQm/CkfhDEHoTjAUaoquF3xORr3AvYYGUEYWFw2WA8AjEWLiG5wUs9pWAS364tPWVh9pVq8IcQehdKBJ/3rmkMoPm9PT0LJk2bVr/0aNHZw0NDU2ozBIGHpNAb2/vySlTphw4fPjwwPDw8FYR2ecJMlYKPXEEZvhBINbC1Q+6WBE6AZf8cGnrO7daFOYIQm/DkPjz1jXlGDZ58uTvnDp16itLly4dd+211541b948mTp1ajmDM0rXBI4cOSJ79uyRF1544aMtW7acHj9+/PeOHTv2ta47yr8BojB/pvQYMIGYC9eA3YLpnhBwyQ+Xtp5Mf0wzoi7MEYTehyDx572LCjHwE319fa8sWrRo5oYNGyYhBAthXGinKhBXrFhxfOfOne8MDg5+UUR+U+iAY3eOKKwQPkP7RyD2wtU/4lgUEgGX/HBpGwqjKAtzBGEo4RfnVmbir3389fX1/XzFihVz77nnnmCCFENbE1i3bp1s2LBh7+Dg4KcqZIQorBA+Q/tHoA6Fq3/UsSgUAi754dI2FD5qZ1TCkII8pNBLbCX+gnNZNoN1y2h/f/+SZ599dlK2HmjlG4Gbb775+MDAwNYKt5IiCn0LCuyplEBdCtdKITN4sARc8sOlbWjAoijMEYShhV3DXuIvWNelNnzOhAkT3n7vvfd62TKampn3F+pW0vPOO2/o5MmTn67o8BlEofdRgoFlEqhT4VomV8aKg4BLfri0DZFe0IU5gjDEkBtlM/EXvAvbT6Cnp2fd8uXLv/HYY4+dFfE0azm1VatWfbRx48ZvDQ8PV7EnGFFYy6hj0u0I1K1wJRIg0A0Bl/xwaduNjT5dG2RhjiD0KYScbCH+nPD521jvJRwYGJh7xRVX+GsklmUi8Prrr0t/f39V9xYiCjN5jUaxEqhj4RqrL5lX/gRc8sOlbf4zKa/HoApzBGF5gVHSSMRfSaDLHKa3t/fEwYMHJ7B1tEzq5YylW0hnzJhxcmhoaGI5I44aBVFYAXSG9JdAXQtXfz2CZT4RcMkPl7Y+MchiSxCFOYIwi2uDaEP8BeGmrow8ffq0vqXyipHAuHHjdFrJ/0p+IQpLBs5wfhOoc+Hqt2ewzgcCLvnh0taHubva4HVhjiB0da/37Yk/713UlYGIwq5whXUxojAsf2FtvATqXrjG61lmlgcBl/xwaZuH7T704WVhjiD0ITRKsYH4KwVzKYMgCkvBXM0giMJquDMqBJoJULgSExBoT8AlP1zaxuQTrwpzBGFMoZVqLsRfKkzeX4Qo9N5F2Q1EFGZnR0sI5EmAwjVPmvQVGwGX/HBpGxtHLwpzBGFsYZV6PsRfalTeXogo9NY17oYhCt0Z0gME8iBA4ZoHRfqIlYBLfri0jZFnpYU5gjDGkOpqTsRfV7i8uxhR6J1L8jMIUZgfS3qCgAsBClcXerSNnYBLfri0jZVrJYU5gjDWcOp6XsRf18i8aYAo9MYV+RuCKMyfKT1CIAsBCtcs1GhTFwIu+eHSNma+pRbmCMKYQynT3Ii/TNgqb4QorNwFxRmAKCyOLT1DoBsCFK7d0OLauhFwyQ+XtrFzLqUwRxDGHkaZ50f8ZUZXWUNEYWXoix8YUVg8Y0aAQBoCFK5pKHFNXQm45IdL2zrwLrQwRxDWIYSc5kj8OeErvTGisHTk5Q2IKCyPNSNBYCwCFK7EBwTaE3DJD5e2dfFJIYU5grAu4eM8T+LPGWFpHSAKS0Nd/kCIwvKZMyIEWhGgcCUuIIAorDIGci3MEYRVujLIsYm/MNyGKAzDT5msRBRmwkYjCOROAFGYO1I6jIiAS364tI0IYaqp5FKYIwhTseaiMwkQf/5HBaLQfx9lthBRmBkdDSGQKwEK11xx0llkBFzyw6VtZBhTTcepMEcQpmLMRe0JEH9+Rwei0G//OFmHKHTCR2MI5EaAwjU3lHQUIQGX/HBpGyHKVFPKVJgjCFOx5aLOBIi/zoyqugJRWBX5EsZFFJYAmSEgkIIAhWsKSFxSWwIu+eHStrbARaSrwhxBWOdQKWTuxF8hWJ07RRQ6I/S3A0Shv77BsnoRoHCtl7+ZbXcEXPLDpW13VsZ3darCHEEYn+M9mRHx54kjLDMQhf75JDeLEIW5oaQjCDgRoHB1wkfjyAm45IdL28ixppremIU5gjAVQy7KToD4y86uiJbOovChhx6S++67L7Htqquukueee076+vqcbB0cHJQ77rhDHnjgAZkzZ06jrxMnTsjKlStlyZIlcvnllzuN4XPjvOaJKPTZy9hWJwIUrnXyNnPtloBLfri07dbOWK9vWZgjCGN1t3fzIv78cUlmUWiEy/nnny/33ntvMqM333xTVCS6CsN2otAfbMVagigsli+9Q6BsAhSuZRNnvJAIuOSHS9uQGBVt66jCHEFYNG76byJA/PkREplF4b59+5KVvM2bN49aGdSfT58+PflZq1XEvXv3ytatW+Xcc8+VRx99VG699Vbp7++XhQsXyrx582T79u1Je10pvPDCC5NrzM9nzpzZWCm89NJLk78//fTTCUnt5/HHH5fdu3cnNunrkksuaQhW/bcRW81tJk6c2PCGCto9e/bIBx98kPS9du1amT17ttx0002jVkJbzU07aWW3zufGG29MbNEVTh1j//79yb+V1/XXX5+Mqa9t27bJ4sWLc1kRZaXQjyTDCghQuBIDEGhPwCU/XNrik9EEksL8/vvvlwcffFB/s0hEfggkCJREgPgrCfQYw2QWhSpsdu3alQgxW1SZsXS1T/+7+OKLG2JMt33qa/78+fLGG2/I3LlzE7GkQmn16tWJEFqwYIFcffXVjZ+rcDJjPfLII7JmzZpk++i/+Tf/JunrggsuSMYx200PHTokt99+eyIu7a2neu2vf/3rlm3s63QsFaLaXl8q2O66666GTWqP2t1qbmY+ap/OS4Wjvm677ba2ovAf//EfEzuVoa60qmC25+myTRZRWH2CYQEElACFK3EAAURhCDFwzUUXXbT5F7/4xR0IwhDcFZ2N18yePXvb/v37byL+KvFtZlFoBEw7UWhmY6+oqRDUl9liOmnSpFErYvpzXZUzotCsrJlVyfXr1ydtzT2F9sqfWU1UUTjWFtZWbZpFoRG7x48fb4hNe5XSCLXmuRlR2LwiOJYoVB72aqGueCIKK8kFBoVAYQQQhYWhpeMICLjkh0vbCNAxBQhER4Ccrs6lmUVhu+2jRthddtlljVU2eztkXqJQ+7FXHO2VwnaiUIVsqzbdikLdDmpWEO25ZRGFaqvapSuUZmstorC6hGBkCBRBgA+5IqjSZywEXPLDpW0s/JgHBGIiQE5X583MorDTQTO6YmfuOdS/q4h68sknu1op1BW5dttHtSPdamnuIzRbRsdaKbRXN/Xew1bbTO1tse1WClUUtppbO1Fob401ItIc0GNEtNlu+u6777JSWF0+MDIECiHAh1whWOk0EgIu+eHSNhJ8TAMCUREgp6tzZ2ZRqCY3H9xiP5LC/p1uidSDZXSL56xZs1JvH1VRqI+7aHXQjBFgL730UnLPnx4MY+5ZbLdSqPcBqvhqbmPft5dGFNqH3Nhza972ah8oo3/Xw2p0LnqozpQpUxLBa1YvlacebPPaa69J8zbZrOHBPYVZydEOAvkS4EMuX570FhcBl/xwaRsXRWYDgTgIkNPV+dFJFFZnNiOnIYAoTEOJayBQPAE+5IpnzAjhEnDJD5e24RLDcgjES4Ccrs63iMLq2Bc+MqKwcMQMAIFUBPiQS4WJi2pKwCU/XNrWFDfThkC1BFyUx7iRyrbaGUQ7uotrooUSy8QQhbF4knmEToDCNXQPYn+RBFzyw6VtkXOibwhAoA0BF+WBKCw0rFxcU6hhdO5OAFHozpAeIJAHAQrXPCjSR6wEXPLDpW2sPJkXBLwmoMrDPnq/r68vsdc+ebHdBBCFhboWUVgo3mo7RxRWy5/RIWAIULgSCxBoT8AlP1za4hMIQKACAkYU6kmS27ZtS06ARBRW4Igzh0QUeuGGYoxAFBbDlV4h0C0BCtduiXF9nQi45IdL2zoxZq4Q8IaAEYVHjx5NbLrllltEHxhurxTajzAwjyDQa1gpLNSNiMJC8VbbOaKwWv6MDgFDgMKVWIBAewIu+eHSFp9AAAIVEDCiUIe+8sor5dVXX02e0db84G79vXl2m3nW3PTp08dVYHJdhkQURuxpRGHEzmVqQRGgcA3KXRhbMgGX/HBpW/I0GQ4CEFACtihU0ff444/Ll7/8ZXn++edl9uzZsnjxYlm5cmXy8HF9kLg+ZPyOO+6QBx54QObOnYsoLC6MEIXFsa28Z0Rh5S7AAAgkBChcCQQIsFJIDEAAAi1E4b59++SZZ55J2OhWUURhZWGCKKwMffEDIwqLZ8wIEEhDAFGYhhLX1JWAS364tK0rb+YNgUoJNK8UqjHPPfec3HTTTY2DZ3S7qL7YPlqqqxCFpeIudzBEYbm8GQ0C7QhQuBIbEGClkBiAAARarBQqFN0iqqeQ6pZR/ZODZioJFURhJdjLGRRRWA5nRoFAJwKIwk6E+H2dCbjkh0vbOjNn7hCojICL8uD00ULd5uKaQg2jc3cCiEJ3hvQAgTwIULjmQZE+YiXgkh8ubWPlybwg4DUBF+WBKCzUtS6uKdQwOncngCh0Z0gPEMiDAIVrHhTpI1YCLvnh0jZWnswLAl4TcFEeiMJCXevimkINo3N3AohCd4b0AIE8CFC45kGRPmIl4JIfLm1j5cm8IBAyAXK6Ou8hCqtjX/jIiMLCETMABFIR4EMuFSYuqikBl/xwaVtT3EwbAl4TIKercw+isDr2hY+MKCwcMQNAIBUBPuRSYeKimhJwyQ+XtjXFzbQh4DUBcro69yAKq2Nf+MiIwsIRMwAEUhHgQy4VJi6qKQGX/HBpW1PcTBsCXhMgpytyT29v74mDBw9OmDp1akUWMGxRBI4cOSIzZsw4OTQ0NLGoMcbo9/Q4fRSNiOifvCBQdwLkQt0jgPmPRcAlP1za4hUIQMA/AuR0RT7p6+v7+cDAwNwrrriiIgsYtigCr7/+uvT39+8dHBz8VFFjIAorIMuQQRLgQy5It2F0SQRc8sOlbUnTYxgIQKALAuR0F7DyvLSnp2fd8uXLv/HYY4+dlWe/9FU9gVWrVn20cePGbw0PD99TgTWsFFYAnSH9JcCHnL++wbLqCbjkh0vb6meOBRCAQDMBcrq6mJgzYcKEt997771etpBW54S8R9ato+edd97QyZMnPy0i+/LuP0V/iMIUkLikPgT4kKuPr5lp9wRc8sOlbfeW0gICECiaADldNOEx+p88efJ3+vv7lzz77LOTKjSDoXMkcPPNNx8fGBjYeuzYsa/l2G03XSEKu6HFtdET4EMuehczQQcCLvnh0tbBZJpCAAIFESCnCwKbtlu9t3DFihVz77mnip2Gaa3kujQE1q1bJxs2bKjqXkJjIqIwjbO4pjYE+JCrjauZaAYCLvnh0jaDqTSBAAQKJkBOFww4Rfef6Ovre2XRokUzN2zYMImtpCmIeXaJbhldsWLF8Z07d74zODj4RRH5TYUmIgorhM/Q/hHgQ84/n2CRPwRc8sOlrT8EsAQCEGisKnByvR/BoFtJT5069ZWlS5eOu/baa8+aN2+eIBD98E0rK1QI7tmzR1544YWPtmzZcnr8+PHfq3DLqG0iotDfsMGyCghQuFYAnSGDIeCSHy5tgwGEoRCoEQFy2i9nz+np6Vkybdq0/qNHj84aGhqa4Jd5WGMI9Pb2npwyZcqBw4cPDwwPD2+t6FCZVg5BFBKmELAI8CFHOECgPQGX/HBpi08gAAH/CJDT/vkkVouItXI8iygshzOjBEKAN55AHIWZlRBwyQ+XtpVMlkEhAIFRBL4uImtFZI2IbBQRk9PLReQvReReEfk2zCBQAAE+PwqA2qJLRGE5nBklEAK88QTiKMyshIBLfri0rWSyDAoBCIwiMEVEBkXkmIgMicgMETkoIr0iMllE+kTkKMwgUAABPj8KgIooLAcqo4RLgDeecH2H5cUTcMkPl7bFz4wRIACBNAR0RXC1iIwfEYAqFE+JyHoR+Ys0HXANBDIQ4PMjA7QMTVgpzACNJvES4I0nXt8yM3cCLvnh0tbdcnqAAATyIKAi8J9F5Gyrsw9F5PdZJcwDL320IcDnRzmhgSgshzOjBEKAN55AHIWZlRBwyQ+XtpVMlkEhAIGWBHS1UO8vPEtEPhq5j5BVQoKlSAJ8fhRJ91/7RhSWw5lRAiHAG08gjsLMSgi45IdL20omy6AQgEBLAvZqIauEBEkZBPj8KIOyCKKwHM6MEggB3ngCcRRmVkLAJT9c2lYyWQaFAATaEjD3FnIvIUFSBgE+P8qgjCgshzKjBEOAN55gXIWhFRBwyQ+XthVMlSEhAIExCOhq4fdE5CvcS0iclECAz48SIOtjZsZZz5opZ0hGgYC/BHjj8dc3WFY9AZf8cGlb/cyxAALZCMzp6elZMm3atP6jR4/OGhoampCtG1oVTaC3t/fklClTDhw+fHhgeHh4q4jsK3pM+k9NgM+P1KicLkQUOuGjcWwEeOOJzaPMJ08CLvnh0jbPOdAXBEohMHny5O+cOnXqK0uXLh137bXXnjVv3jyZOnVqKWMzSPcEjhw5Inv27JEXXnjhoy1btpweP378944dO/a17nuiRQEE+PwoAGqLLhGF5XBmlEAI8MYTiKMwsxICLvnh0raSyTIoBDIS+ERfX98rixYtmrlhw4ZJCMGMFCtspgJxxYoVx3fu3PnO4ODgF0XkN/9/e2cbo1dV9f3VKR2mpQNtZkxDSwh6G1r5QJEofmgJt4WAtyGhdBI1YBUhPlIKtvQWRSgiUF9u5a5ToVQfg6IV8vhhSkkICoF6E9oPokHKB6XGF4K8pHEmLU6hw5QOT/b1cHiujvNy9lnn7L3XOb8rQaTda6+1fuusvfc/51znihgOrkXYP8JcBYjCMJzxYoQAC4+RQhFmFAKa/tDYRkkWpxAoQqCnp+eP69evX7Jx48Yi5tgkRGDTpk3S39///NDQ0AcSCquJobB/hKk6ojAMZ7wYIcDCY6RQhBmFgKY/NLZRksUpBHwJuEdG+/r6Vt93331zfG0ZnyaBK6644o2BgYHtPEoatT7sH2HwIwrDcMaLEQIsPEYKRZhRCGj6Q2MbJVmcQsCTwOKurq7nXn311U4eGfUkl/Bw9yjpySefPDoyMnImL5+JVij2jzDoEYVhOOPFCAEWHiOFIswoBDT9obGNkixOIeBDoKOjY9O6deu+vHnz5lk+doxNn8CGDRuObNmy5TtjY2M8ExynXOwfYbgjCsNwxosRAiw8RgpFmFEIaPpDYxslWZxCwIeA+y7hwMDAkvPOO8/HjLEGCDz55JPS19fHdwvj1Yr9Iwx7RGEYzngxQoCFx0ihCDMKAU1/aGyjJItTCPgQ6OzsPLx///4uHh31oWZjrHuEdMGCBSOjo6OzbURcuyjZP8KUFFEYhjNejBBg4TFSKMKMQkDTHxrbKMniFAKeBN5++213mfOpI4EZM2a4tFr/wyc4AfaPMMgRhWE448UIARYeI4UizCgENP2hsY2SLE4h4EkAUegJzNJwRGHUarF/hMGPKAzDGS9GCLDwGCkUYUYhoOkPjW2UZHEKAU8CiEJPYJaGIwqjVov9Iwx+RGEYzngxQoCFx0ihCDMKAU1/aGyjJItTCHgSQBR6ArM0HFEYtVrsH2HwIwrDcMaLEQIsPEYKRZhRCGj6Q2MbJVmcQsCTAKLQE5il4YjCqNVi/wiDH1EYhjNejBBg4TFSKMKMQkDTHxrbKMniFAKeBBCFnsAsDUcURq0W+0cY/IjCMJzxYoQAC4+RQhFmFAKa/tDYRkkWpxDwJIAo9ARmaTiiMGq12D/C4EcUhuGMFyMEWHiMFIowoxDQ9IfGNkqyOIWAJwFEoScwS8MRhVGrxf4RBj+iMAxnvBghwMJjpFCEGYWApj80tlGSxSkEPAkgCj2BWRqOKIxaLfaPMPgRhWE448UIARYeI4UizCgENP2hsY2SLE4h4EkAUegJzNJwRGHUarF/hMGPKAzDGS9GCLDwGCkUYUYhoOkPjW2UZHEKAU8CiEJPYJaGIwqjVov9Iwx+RGEYzngxQoCFx0ihCDMKAU1/aGyjJItTCHgSQBR6ArM0HFEYtVrsH2HwIwrDcMaLEQIsPEYKRZhRCGj6Q2MbJVmcQsCTAKLQE5il4YjCqNVi/wiDH1EYhjNejBBg4TFSKMKMQkDTHxrbKMniFAKeBBCFnsAsDUcURq0W+0cY/IjCMJzxYoQAC4+RQhFmFAKa/tDYRkkWpxDwJIAo9ARmaTiiMGq12D/C4EcUhuGMFyMEWHiMFIowoxDQ9IfGNkqyOIWAJwFEoScwS8MRhVGrxf4RBj+iMAxnvBghwMJjpFCEGYWApj80tlGSxSkEPAkgCj2BWRqOKIxaLfaPMPgRhWE448UIARYeI4UizCgENP2hsY2SLE4h4ElgSlG4Z88eWb58+btT7t69W5YtW+bp4tjhhw8fluuvv15Wr159zFyT/bnKWQnGd9xxh7zvfe+Tyy+/vITZ/nWKffv2yde//nW5++675Ve/+pX89a9/lVtuuaUUX4jCUjAWnYT9oyg5PztEoR8vRtecAAtPzQtMeioCmv7Q2KqCxhgCgQhMKgrvv/9+2b59u7h/9/T0yNDQUEsYOcGiEYapir+JeGexnnvuuZWJQie8nfDMOJdZd0RhmTS952L/8EZWyABRWAgbRnUlwMJT18qSVxkENP2hsS0jduaAQNUEJhSFkwk3JwwHBwdl8eLFMtFdxCVLlsi1114rH/3oR+ULX/iCLF26VLZu3doSPY8++qj8/Oc/l1WrVrXuFC5atEi+9rWvtfJzdyDPPvvsY+4gOpvs7y+66KKWaHr++edbd9Tc54wzzjjmjloW8w9/+MPW3zv/3/ve92T27NnHMJxs3kyYzZkz5904XnjhBfn0pz/dyuMXv/iF9Pb2tsShyyWLKRvv4r/nnntk79698thjj8nAwIC4WG6//fZWnO6O4Cc/+cnW37uPY/Gxj33s3fncOHdHMrtT2M43m8PZOQ4upmyOqe5gIgqrbp8p52f/CIMfURiGM16MEGDhMVIowoxCQNMfGtsoyeIUAp4EJhSFTsB88YtflO9///stATjRx4mW7I6hEypOzFxzzTUtkeP+3AkhJ7TcOPf37tHIp556Sr75zW/KTTfd1JrSibZnnnmmNe7ee+9t/ds9VurEpROgp59+urQLVGezdu3alkAbH9dLL73UmvOUU05p2Tpx6h7LbB/n/nyyeScShZlQdXcKMzGb3TV0OU2Uz44dO+S73/1uK0YnoLN5//73v7dicSLVMXF3Ydvzzxi1c3QM28Wyyy+bz/3/6e7cIgo9u6Hc4ewf5fKcbDZEYRjOeDFCgIXHSKEIMwoBTX9obKMki1MIeBKYUBROJqrGzz3+blYmCrNHTDOx6P47E0KZKMzEVebrxhtvlG3bth3zXcP2u3rubmK7KHKPtI7/tN8tzO7uTSRqp5q3/U5huyh0d/XahWb2XcA777yzJdSyfNoF34svvvju9wVdvO13C7M7mZkobheFn/jEJ46xy/Js55mxmOr7johCz24odzj7R7k8EYVheOLFOAEWHuMFJPxKCWj6Q2NbaVJMDoGSCHg9Pjpe2LkY3N0ud3ds/B0ud7ewqCh0j2m6Ry1vuOGGd+/QuTuIU4nCTKA68Zg9xjr+TmEmyqaatypR6B4tze6ausdgp7pTiCgs6eqOOw37Rxj+3CkMwxkvRgiw8BgpFGFGIaDpD41tlGRxCgFPAoVeNNP+SGP2/913BH3uFGaCcqLHR50ozN7I6R7BdALRfTdxOlHYLrQmesy0/U2f7fM6f9njss5H5s/n8dHp7hQ6UZjd1XN3Fl9++WWvx0fd/KeddhqPj3pe4BGHs3+EgY8oDMMZL0YIsPAYKRRhRiGg6Q+NbZRkcQoBTwJT/iRF+0tN3LztP0mR/Z17TNOJQSfu3GOiV1111btvKJ3qTuGJJ57YeiGLe/HK+BfNZGLMvajFPWbpxjo/7aJo/OOj2dtR3Utg3J3Af/7zn5P+7MX4ebPvC7o//9SnPtVC6B4VdXc7nYBzL42Z7kUz04lCd3cw+3kP5+fXv/5166U5mTjt6+s75kUzEz1q6r6PyItmPK/weMPZP8KwRxSG4YwXIwRYeIwUijCjEND0h8Y2SrI4hYAnAX683hOYpeF8pzBqtdg/wuBHFIbhjBcjBFh4jBSKMKMQ0PSHxjZKsjiFgCcBRKEnMEvDEYVRq8X+EQY/ojAMZ7wYIcDCY6RQhBmFgKY/NLZRksUpBDwJIAo9gVkajiiMWi32jzD4EYVhOOPFCAEWHiOFIswoBDT9obGNkixOIeBJAFHoCczScERh1Gqxf4TBjygMwxkvRgiw8BgpFGFGIaDpD41tlGRxCgFPAohCT2CWhiMKo1aL/SMMfkRhGM54MUKAhcdIoQgzCgFNf2hsoySLUwgAM8TqAAAgAElEQVR4EkAUegKzNBxRGLVa7B9h8CMKw3DGixECLDxGCkWYUQho+kNjGyVZnELAkwCi0BOYpeGIwqjVYv8Igx9RGIYzXowQYOExUijCjEJA0x8a2yjJ4hQCngQQhZ7ALA1HFEatFvtHGPyIwjCc8WKEAAuPkUIRZhQCmv7Q2EZJFqcQ8CSAKPQEZmk4ojBqtdg/wuBHFIbhjBcjBFh4jBSKMKMQ0PSHxjZKsjiFgCcBRKEnMEvDEYVRq8X+EQY/ojAMZ7wYIcDCY6RQhBmFgKY/NLZRksUpBDwJIAo9gVkajiiMWi32jzD4EYVhOOPFCAEWHiOFIswoBDT9obGNkixOIeBJAFHoCczScERh1Gqxf4TBjygMwxkvRgiw8BgpFGFGIaDpD41tlGRxCgFPAohCT2CWhiMKo1aL/SMMfkRhGM54MUKAhcdIoQgzCgFNf2hsoySLUwh4EkAUegKzNBxRGLVa7B9h8CMKw3DGixECLDxGCkWYUQho+kNjGyVZnELAkwCi0BOYpeGIwqjVYv8Igx9RGIYzXowQYOExUijCjEJA0x8a2yjJ4hQCngQQhZ7ALA1HFEatFvtHGPyIwjCc8WKEAAuPkUIRZhQCmv7Q2EZJFqcQ8CSAKPQEZmk4ojBqtdg/wuBHFIbhjBcjBFh4jBSKMKMQ0PSHxjZKsjiFgCcBRKEnMEvDEYVRq8X+EQY/ojAMZ7wYIcDCY6RQhBmFgKY/NLZRksUpBHwIdHZ2Ht6/f3/XvHnzfMwYa4DAwYMHZcGCBSOjo6OzDYRbxxDZP8JUFVEYhjNejBBg4TFSKMKMQkDTHxrbKMniFAI+BHp6ev44MDCw5LzzzvMxY6wBAk8++aT09fU9PzQ09AED4dYxRPaPMFVFFIbhjBcjBFh4jBSKMKMQ0PSHxjZKsjiFgA+Bjo6OTevWrfvy5s2bZ/nYMTZ9Ahs2bDiyZcuW74yNjW1MP9paRsj+EaasiMIwnPFihAALj5FCEWYUApr+0NhGSRanEPAksLirq+u5V199tZNHSD3JJTzcPTp68sknj46MjJwpIvsSDrXOobF/hKkuojAMZ7wYIcDCY6RQhBmFgKY/NLZRksUpBHwJzJ079wd9fX2r77vvvjm+toxPk8AVV1zxxsDAwPZDhw5dnWaEjYiK/SNMmRGFYTjjxQgBFh4jhSLMKAQ0/aGxjZIsTiFQhID7buH69euXbNzIk4ZF+KVks2nTJunv7+e7hPGLwv4RpgaIwjCc8WKEAAuPkUIRZhQCmv7Q2EZJFqcQKEhgYU9PzxMXX3zxqf39/XN4lLQgxYhm7pHR9evXv/Hwww+/ODQ0dL6IvBIxHFyLsH+EuQoQhWE448UIARYeI4UizCgENP2hsY2SLE4hoCHgHiV96623PrdmzZoZl1xyyaylS5cKAlFDtFpbJwT37t0rDz300JFt27a9fdxxx/2ER0arZe4xO/uHByzFUEShAh6m9SPAwlO/mpJReQQ0/aGxLS8DZoJAWAKLOzo6Vs+fP79veHj4tNHR0a6w7vGWl0BnZ+dId3f3CwcOHBgYGxvbzktl8pILMo79IwhmQRSG4YwXIwRYeIwUijCjEND0h8Y2SrI4hQAEpiRAT3OBhCLAtRaGNKIwDGe8GCHAwmOkUIQZhYCmPzS2UZLFKQQggCjkGkiCAPtHmDIgCsNwxosRAiw8RgpFmFEIaPpDYxslWZxCAAKIQq6BJAiwf4QpA6IwDGe8GCHAwmOkUIQZhYCmPzS2UZLFKQQggCjkGkiCAPtHmDIgCsNwxosRAiw8RgpFmFEIaPpDYxslWZxCAAKIQq6BJAiwf4QpA6IwDGe8GCHAwmOkUIQZhYCmPzS2UZLFKQQggCjkGkiCAPtHmDIgCsNwxosRAiw8RgpFmFEIaPpDYxslWZxCAAKIQq6BJAiwf4QpA6IwDGe8GCHAwmOkUIQZhYCmPzS2UZLFKQQggCjkGkiCAPtHmDIgCsNwxosRAiw8RgpFmFEIaPpDYxslWZxCAAKIQq6BJAiwf4QpA6IwDGe8GCHAwmOkUIQZhYCmPzS2UZLFKQQggCjkGkiCAPtHmDIgCsNwxosRAiw8RgpFmFEIaPpDYxslWZxCAAKIQq6BJAiwf4QpA6IwDGe8GCHAwmOkUIQZhYCmPzS2UZLFKQQggCjkGkiCAPtHmDIgCsNwxosRAiw8RgpFmFEIaPpDYxslWZxCAAKIQq6BJAiwf4QpA6IwDGe8GCHAwmOkUIQZhYCmPzS2UZLFKQQggCjkGkiCAPtHmDIgCsNwxosRAiw8RgpFmFEIaPpDYxslWZxCAAKIQq6BJAiwf4QpA6IwDGe8GCHAwmOkUIQZhYCmPzS2UZLFKQQggCjkGkiCAPtHmDIgCsNwxosRAiw8RgpFmFEIaPpDYxslWZxCAAKIQq6BJAiwf4QpA6IwDGe8GCHAwmOkUIQZhYCmPzS2UZLFKQQggCjkGkiCAPtHmDIgCsNwxosRAiw8RgpFmFEIaPpDYxslWZxCAAKIQq6BJAiwf4QpA6IwDGe8GCHAwmOkUIQZhYCmPzS2UZLFKQQggCjkGkiCAPtHmDIgCsNwxosRAiw8RgpFmFEIaPpDYxslWZxCAAKIQq6BJAiwf4QpA6IwDGe8GCHAwmOkUIQZhYCmPzS2UZLFKQQggCjkGkiCAPtHmDIgCsNwxosRAiw8RgpFmFEIaPpDYxslWZxCAAKIQq6BJAiwf4QpA6IwDGe8GCHAwmOkUIQZhYCmPzS2UZLFKQQggCjkGkiCAPtHmDIgCsNwxosRAiw8RgpFmFEIaPpDYxslWZxCAAKIQq6BJAiwf4QpA6IwDGe8GCHAwmOkUIQZhYCmPzS2UZLFKQQggCjkGkiCAPtHmDIgCsNwxosRAiw8RgpFmFEIaPpDYxslWZxCAAKIQq6BJAiwf4QpA6IwDGe8GCHAwmOkUIQZhYCmPzS2UZLFKQQggCjkGkiCAPtHmDIgCsNwxosRAiw8RgpFmFEIaPpDYxslWZxCAAKIQq6BJAiwf4QpA6IwDGe8GCHAwmOkUIQZhYCmPzS2UZLFKQQggCjkGkiCAPtHmDIgCsNwxosRAiw8RgpFmFEIaPpDYxslWZxCAAKIQq6BJAiwf4QpA6IwDGe8GCHAwmOkUIQZhYCmPzS2UZLFKQQgcAyB/xSR20XkJhHZIiJZT68TkW+JyC0i8t8wg0AFBNg/KoA6wZSIwjCc8WKEAAuPkUIRZhQCmv7Q2EZJFqcQgMAxBLpFZEhEDonIqIgsEJH9ItIpInNFpEdEhmEGgQoIsH9UABVRGAYqXuwSYOGxWzsir56Apj80ttVnhgcIQCAPAXdH8Esictw7AtAJxbdE5E4R+WqeCRgDgQIE2D8KQCtgwp3CAtAwqS8BFp761pbM9AQ0/aGx1UfODBCAQBkEnAj8h4gc3zbZmyLyHu4SloGXOSYhwP4R5tJAFIbhjBcjBFh4jBSKMKMQ0PSHxjZKsjiFAAQmJODuFrrvF84SkSPvfI+Qu4RcLFUSYP+oku7/nxtRGIYzXowQYOExUijCjEJA0x8a2yjJ4hQCEJiQQPvdQu4ScpGEIMD+EYKyCKIwDGe8GCHAwmOkUIQZhYCmPzS2UZLFKQQgMCmB7LuFfJeQiyQEAfaPEJQRhWEo48UMARYeM6Ui0AgENP2hsY2QKi4hAIEpCLi7hT8Rkc/xXUKukwAE2D8CQHY/MzOj7bdmwrjECwTSJcDCk25tiCw+AU1/aGzjZ04EEChGYHFHR8fq+fPn9w0PD582OjraVWwarKom0NnZOdLd3f3CgQMHBsbGxraLyL6qfTJ/bgLsH7lRqQYiClX4MK4bARaeulWUfMokoOkPjW2ZOTAXBIIQmDt37g/eeuutz61Zs2bGJZdcMmvp0qUyb968IL5x4k/g4MGDsnfvXnnooYeObNu27e3jjjvuJ4cOHbrafyYsKiDA/lEB1AmmRBSG4YwXIwRYeIwUijCjEND0h8Y2SrI4hUBBAgt7enqeuPjii0/t7++fgxAsSDGimROI69evf+Phhx9+cWho6HwReSViOLgWYf8IcxUgCsNwxosRAiw8RgpFmFEIaPpDYxslWZxCoAiBnp6eP65fv37Jxo0bi5hjkxCBTZs2SX9///NDQ0MfSCisJobC/hGm6ojCMJzxYoQAC4+RQhFmFAKa/tDYRkkWpxDwJeAeGe3r61t93333zfG1ZXyaBK644oo3BgYGtvMoadT6sH+EwY8oDMMZL0YIsPAYKRRhRiGg6Q+NbZRkcQoBTwKLu7q6nnv11Vc7eWTUk1zCw92jpCeffPLoyMjImbx8Jlqh2D/CoEcUhuGMFyMEWHiMFIowoxDQ9IfGNkqyOIWAD4GOjo5N69at+/LmzZtn+dgxNn0CGzZsOLJly5bvjI2N8UxwnHKxf4ThjigMwxkvRgiw8BgpFGFGIaDpD41tlGRxCgEfAu67hAMDA0vOO+88HzPGGiDw5JNPSl9fH98tjFcr9o8w7BGFYTjjxQgBFh4jhSLMKAQ0/aGxjZIsTiHgQ6Czs/Pw/v37u3h01IeajbHuEdIFCxaMjI6OzrYRce2iZP8IU1JEYRjOeDFCgIXHSKEIMwoBTX9obKMki1MIeBJ4++233WXOp44EZsyY4dJq/Q+f4ATYP8IgRxSG4YwXIwRYeIwUijCjEND0h8Y2SrI4hYAnAUShJzBLwxGFUavF/hEGP6IwDGe8GCHAwmOkUIQZhYCmPzS2UZLFKQQ8CSAKPYFZGo4ojFot9o8w+BGFYTjjxQgBFh4jhSLMKAQ0/aGxjZIsTiHgSQBR6AnM0nBEYdRqsX+EwY8oDMMZL0YIsPAYKRRhRiGg6Q+NbZRkcQoBTwKIQk9gloYjCqNWi/0jDH5EYRjOeDFCgIXHSKEIMwoBTX9obKMki1MIeBJAFHoCszQcURi1WuwfYfAjCsNwxosRAiw8RgpFmFEIaPpDYxslWZxCwJMAotATmKXhiMKo1WL/CIMfURiGM16MEGDhMVIowoxCQNMfGtsoyeIUAp4EEIWewCwNRxRGrRb7Rxj8iMIwnPFihAALj5FCEWYUApr+0NhGSRanEPAkgCj0BGZpOKIwarXYP8LgRxSG4YwXIwRYeIwUijCjEND0h8Y2SrI4hYAnAUShJzBLwxGFUavF/hEGP6IwDGe8GCHAwmOkUIQZhYCmPzS2UZLFKQQ8CSAKPYFZGo4ojFot9o8w+BGFYTjjxQgBFh4jhSLMKAQ0/aGxjZIsTiHgSQBR6AnM0nBEYdRqsX+EwY8oDMMZL0YIsPAYKRRhRiGg6Q+NbZRkcQoBTwKIQk9gloYjCqNWi/0jDH5EYRjOeDFCgIXHSKEIMwoBTX9obKMki1MIeBJAFHoCszQcURi1WuwfYfAjCsNwxosRAiw8RgpFmFEIaPpDYxslWZxCwJMAotATmKXhiMKo1WL/CIMfURiGM16MEGDhMVIowoxCQNMfGtsoyeIUAp4EEIWewCwNRxRGrRb7Rxj8iMIwnPFihAALj5FCEWYUApr+0NhGSRanEPAkgCj0BGZpOKIwarXYP8LgRxSG4YwXIwRYeIwUijCjEND0h8Y2SrI4hYAngVJE4eHDh+X666+XRYsWyS233DJlCENDQ3LttdfK17/+dVm8eLFXuJmf1atXywsvvCB//etfp/Xn42DPnj2yfPnyY0xuv/32lo9238uWLfOZVu6///7SY80TwDSisFtE/peI/HeeuRjjTYD9wxtZIQNEYSFsGNWVAAtPXStLXmUQ0PSHxraM2JkDAlUTKEUU7tu3T773ve/JiSeeKF/5ylekp6dn0rjd2C9+8Yvy/e9/XyUKfYVZHpBOFN5xxx0tEedy8BG7U82fmCh0YvDLIvIVEXlLRObkYcMYbwLsH97IChkgCgthw6iuBFh46lpZ8iqDgKY/NLZlxM4cEKiaQCmi0Ime9s/ll1/e+k8nAD/5yU/K3r175Qtf+IJ885vflJtuukl++MMftv7b3YG76qqrWv92Iq9dPI2/a7d79245++yzW3ck2+8UfuITn3jXRxZD+1jny32cPydcn3nmGbn77rtbf3bGGWccc6dxvCjMcnB3Ne+8886WYHS+lyxZIi7HRx99tDVPuz8X4z333NPK2f35+LzcHF/72tdadhdddFEr5+eff162b9/eis99shy1wnfcncJMDH5JRNza5v65WUT6q77IGjo/+0eYwiMKw3DGixECLDxGCkWYUQho+kNjGyVZnELAk4BaFLq7aU4wXXPNNTI4OCj33nuv3Hbbbe+Km3PPPbcloJwYet/73icf+tCH3r1T2Nvb2/q7yURhJooysfilL33pX0Rh++OqToRm/t1jqu5zyimnSPsjqy7GtWvXyi9+8Yt/uVM5kSjMbG+88UbZtm3bMYLU+XY2TtBlgtf5zMRndtfxV7/6VevxUcfIzXf66acf8ziqE5k333yzfOMb32gxdCLUCdep7rjmqfM7ovDEd+4MZmJw9ju2DlBvnnkYU4gA+0chbN5GiEJvZBjUmQALT52rS25aApr+0Nhq48YeAiEIqEWhE2KPPPJIS6w5gXjrrbe27v45wTfRdwfbHx+dShS65NvvFrrv9k0lCtsF4ezZ/0/3ZI9/uruFS5cubQlBJ7raHxFth5xXFLq4szug2d3A8d85bBeiv/vd7475TmH73cLM3v3ZihUrWuHs2rWrlO9KviMK/4+IrBKRzrZcx0SkI8QF1mAf/yMiH21w/qFSRxSGIo0fEwQ4uJooE0FGIqDpD41tpHRxCwEvAmpR2C5wMs8///nP5WMf+1hhUZiJPzefu+u2Y8eOlqiaTBQ6AZbdacvurmWC0okudycuE6i+otCJzfGPj2Z3MDMf7jFQd4cye7zU/f1EojB71PWGG26QVatWHfOYqJvLiUH3ceJQ++iom4c7hV69wGCbBBCFNutG1BUR4OBaEVimrQUBTX9obGsBjyRqT0AlCid6k+h4EdX++Kij6YRR9qKZU089tSWM3JhMJLk3mLaLv+x7hOP/PHv7qHskc7wgdH6yxzqzRzmzR0Z9RGH7i2bGC1Lnwz36Oj7f7A2s7Xcds8dHXe7Zo6EuDne3cevWrS0BmD2G+4c//KGUR0fbROGMd67iib5TuNHp7tpf5SRYZwKIwjpXl9y8CXBw9UaGQYMIaPpDY9sgxKRqmIBKFLYLr/GPbI5/IUv2UpVMTJ122mnv3gX89Kc/3Xq888ILL5Tu7u7Wo5Pue4TZnzvh514Qk31vr/1FM+57im5c+ye7U5m9DMbdmfvnP//Z+j6g+0z1+Gien6TIhGr2Epv2F80cPHiw9Ziq+4x/0UwmLLMX7bi3tbq8sxfzlP2W0kl+kiITh+4NpEd5+6jh7iV0RwBRyHUAgTYCHFy5HCAwOQFNf2hsqQkELBBQiUILCYaKMburmN0Z9fWr+R3EyXzxO4W+VWC8QQKIQoNFI+TqCHBwrY4tM9snoOkPja19cmTQBAKIwpKqrBGF7jFcd7cwu3ua3XXVhjaNKNROjz0EUiCAKEyhCsSQDAEOrsmUgkASJKDpD41tgigICQL/QgBRWOOLAlFY4+KSWkYAUci1AIE2AhxcuRwgMDkBTX9obKkJBCwQQBRaqFLBGBGFBcFhZokAotBStYi1cgIcXCtHjAPDBDT9obE1jIzQG0QAUVjjYiMKa1xcUuNOIdcABCYgwMGVywIC3CnkGoBAEQKIwiLUjNggCo0UijA1BLhTqKGHbe0IIAprV1ISKpGApj80tiWmwFQQqIwAorAytPEnRhTGrwERVE4AUVg5YhxYIsDB1VK1iDU0AU1/aGxD54k/CBQhgCgsQs2IDaLQSKEIU0MAUaihh23tCHBwrV1JSahEApr+0NiWmAJTQaAyAojCytDGnxhRGL8GRFA5AURh5YhxYIkAB1dL1SLW0AQ0/aGxDZ0n/iBQhACisAg1IzaIQiOFIkwNAUShhh62tSPAwbV2JSWhEglo+kNjW2IKTAWBygggCitDG39iRGH8GhBB5QQQhZUjxoElAhxcLVWLWEMT0PSHxjZ0nviDQBECiMIi1IzYIAqNFIowNQQQhRp62NaOAAfX2pWUhEokoOkPjW2JKTAVBCojgCisDG38iRGF8WtABJUTQBRWjhgHlghwcLVULWINTUDTHxrb0HniDwJFCCAKi1AzYoMoNFIowtQQQBRq6GFbOwIcXGtXUhIqkYCmPzS2JabAVBCojACisDK08SdGFMavARFUTgBRWDliHFgiwMHVUrWINTQBTX9obEPniT8IFCGAKCxCzYgNotBIoQhTQwBRqKGHbe0IcHCtXUlJqEQCmv7Q2JaYAlNBoDICiMLK0MafGFEYvwZEUDkBRGHliHFgiQAHV0vVItbQBDT9obENnSf+IFCEAKKwCDUjNohCI4UiTA0BRKGGHra1I8DBtXYlJaESCWj6Q2NbYgpMBYFqCHR2dh7ev39/17x586pxwKzRCBw8eFAWLFgwMjo6OjtaEDiGQPUEEIXVM8aDIQIcXA0Vi1CDE9D0h8Y2eKI4hIAvgZ6enj8ODAwsOe+883xNGZ84gSeffFL6+vqeHxoa+kDioRIeBDQEEIUaetjWjgAH19qVlIRKJKDpD41tiSkwFQSqIdDR0bFp3bp1X968efOsajwwaywCGzZsOLJly5bvjI2NbYwVA34hEIAAojAAZFzYIcDB1U6tiDQ8AU1/aGzDZ4pHCPgTWNzV1fXcq6++2skjpP7wUrVwj46efPLJoyMjI2eKyL5U4yQuCJRAAFFYAkSmqA8BDq71qSWZlE9A0x8a2/IzYUYIVEBg7ty5P+jr61t93333zalgeqaMQOCKK654Y2BgYPuhQ4eujuAelxAISQBRGJI2vpInwME1+RIRYEQCmv7Q2EZMGdcQ8CPgvlu4fv36JRs38qShH7n0Rm/atEn6+/v5LmF6pSGiagggCqvhyqxGCXBwNVo4wg5CQNMfGtsgyeEEAiURWNjT0/PExRdffGp/f/8cHiUtiWrAadwjo+vXr3/j4YcffnFoaOh8EXkloHtcQSAWAURhLPL4TZIAB9cky0JQiRDQ9IfGNpH0CQMC+Qm4R0nfeuutz61Zs2bGJZdcMmvp0qWCQMzPL/RIJwT37t0rDz300JFt27a9fdxxx/2ER0ZDVwF/kQkgCiMXAPdpEeDgmlY9iCYtApr+0NimRYFoIJCfwOKOjo7V8+fP7xseHj5tdHS0K78pI0MS6OzsHOnu7n7hwIEDA2NjY9t5qUxI+vhKhACiMJFCEEYaBDi4plEHokiTgKY/NLZp0iAqCDSbAD3d7PqTff0IIArrV1MyUhBgk1PAw7T2BDT9obGtPVgShIBBAvS0waIRMgSmIIAo5PKAQBsBNjkuBwhMTkDTHxpbagIBCKRHgJ5OryZEBAENAUShhh62tSPAJle7kpJQiQQ0/aGxLTEFpoIABEoiQE+XBJJpIJAIAURhIoUgjDQIsMmlUQeiSJOApj80tmnSICoINJsAPd3s+pN9/QggCutXUzJSEGCTU8DDtPYENP2hsa09WBKEgEEC9LTBohEyBKYggCjk8oBAGwE2OS4HCExOQNMfGltqAgEIpEeAnk6vJkQEAQ0BRKGGHra1I8AmV7uSklCJBDT9obEtMQWmggAESiJAT5cEkmkgkAgBRGEihSCMNAiwyaVRB6JIk4CmPzS2adIgKgg0mwA93ez6k339CCAK61dTMlIQYJNTwMO09gQ0/aGxrT1YEoSAQQL0tMGiETIEpiCAKOTygEAbATY5LgcITE5A0x8aW2oCAQikR4CeTq8mRAQBDQFEoYYetrUjwCZXu5KSUIkENP2hsS0xBaaCAARKIkBPlwSSaSCQCAFEYSKFIIw0CLDJpVEHokiTgKY/NLZp0iAqCDSbAD3d7PqTff0IIArrV1MyUhBgk1PAw7T2BDT9obGtPVgShIBBAvS0waIRMgSmIIAo5PKAQBsBNjkuBwhMTkDTHxpbagIBCKRHgJ5OryZEBAENAUShhh62tSPAJle7kpJQiQQ0/aGxLTEFpoIABEoiQE+XBJJpIJAIAURhIoUgjDQIsMmlUQeiSJOApj80tmnSICoINJsAPd3s+pN9/QggCutXUzJSEGCTU8DDtPYENP2hsa09WBKEgEEC9LTBohEyBKYggCjk8oBAGwE2OS4HCExOQNMfGltqAgEIpEeAnk6vJkQEAQ0BRKGGHra1I8AmV7uSklCJBDT9obEtMQWmggAESiJAT5cEkmkgkAgBRGEihSCMNAiwyaVRB6JIk4CmPzS2adIgKgg0mwA93ez6k339CCAK61dTMlIQYJNTwMO09gQ0/aGxrT1YEoSAQQL0tMGiETIEpiCAKOTygEAbATY5LgcITE5A0x8aW2oCAQikR4CeTq8mRAQBDQFEoYYetrUjwCZXu5KSUIkENP2hsS0xBaaCAARKIkBPlwSSaSCQCAFEYSKFIIw0CLDJpVEHokiTgKY/NLZp0iAqCDSbAD3d7PqTff0IIArrV1MyUhBgk1PAw7T2BDT9obGtPVgShIBBAvS0waIRMgSmIIAo5PKAQBsBNjkuBwhMTkDTHxpbagIBCKRHgJ5OryZEBAENAUShhh62tSPAJle7kpJQiQQ0/aGxLTEFpoIABEoiQE+XBJJpIJAIAURhIoUgjDQIsMmlUQeiSJOApj80tmnSICoINJsAPd3s+pN9/QggCutXUzJSEGCTU8DDtPYENP2hsa09WBKEgEEC9LTBohEyBKYggCjk8oBAGwE2OS4HCExOQNMfGltqAgEIpEeAnk6vJkQEAQ0BRKGGHra1I8AmV7uSklCJBDT9obEtMQWmggAEChL4TxG5XURuEpEtIpL19DoR+ZaI3CIi/11wbswgAIH4BBCF8WtABAkR4OCaUDEIJTkCmv7Q2CYHgoAg0EAC3SIyJKFE62AAABXxSURBVCKHRGRURBaIyH4R6RSRuSLSIyLDDeRCyhCoCwFEYV0qSR6lEODgWgpGJqkpAU1/aGxripO0IGCOgLsj+CUROe4dAeiE4lsicqeIfNVcNgQMAQi0E0AUcj1AoI0AB1cuBwhMTkDTHxpbagIBCKRBwInAf4jI8W3hvCki7+EuYRoFIgoIKAggChXwMK0fAQ6u9aspGZVHQNMfGtvyMmAmCEBAS8DdLXTfL5wlIkfe+R4hdwm1VLGHQHwCiML4NSCChAhwcE2oGISSHAFNf2hskwNBQBBoMIH2u4XcJWzwhUDqtSOAKKxdSUlIQ4CDq4YetnUnoOkPjW3duZIfBKwRyL5byHcJrVWOeCEwOQFEIVcHBNoIcHDlcoDAFBuGiMwoCIjeKggOMwgkSMDdLfyJiHyO7xImWB1CgkAxAojCYtywqikBDq41LSxplUJA0x8a21KCZxIIQKAQgVNF5IL58+ef39HR8cGRkZGFIyMjc48ePTpz5syZR7u6ug51dXW9MjY29vsDBw48ISKPi8iLhTxhBAEIxCSAKIxJH9/JEeDgmlxJCCghApr+0NgmhIBQINAYAlf29vZed/jw4SUXXnjhkQsuuKD7zDPPlPe+973S29srxx9/vLz55psyODgof/vb3+S5556Txx9/fPixxx6bNXv27OcHBwfvEpEfN4YWiULAPgFEof0akkGJBDi4lgiTqWpHQNMfGtvagSQhCCRM4Oru7u47PvzhD8+67rrrTlq5cqV3qDt37pS77rrrtd/+9rdHhoeHbxGRH3hPggEEIBCaAKIwNHH8JU2Ag2vS5SG4yAQ0/aGxjZw27iHQCAIf7O3t/fHixYtP+/a3vz1v+fLl6qR3794tN95448F9+/a9MDg4eKWI/F49KRNAAAJVEUAUVkWWeU0S4OBqsmwEHYiApj80toHSww0EGkvACbZ7t27dKtdcc03pEO655x5Zu3atm/cqHiktHS8TQqAsAojCskgyTy0IcHCtRRlJoiICmv7Q2FaUDtNCAAIicvPChQu/8uCDD3afc845lQF5+umn5dJLLx1+5ZVX/ktEvlGZIyaGAASKEkAUFiWHXS0JcHCtZVlJqiQCmv7Q2JYUPtNAAALjCNx8+umn37Br166TFi1aVDmcl19+WVasWPHan/70p+8iDCvHjQMI+BJAFPoSY3ytCXBwrXV5SU5JQNMfGltl2JhDAAITELhy4cKF/U8//XR3CEGY+XfC8JxzznF3DNfzKCnXJQSSIoAoTKocBBObAAfX2BXAf8oENP2hsU2ZCbFBwCKBD4rIM7/5zW+cQAsev3uU9CMf+YjzezYvnwmOH4cQmIwAopBrAwJtBDi4cjlAYHICmv7Q2FITCECgRAK9vb2/v+22286q4qUyecN0L5+59dZbnx0cHHQClQ8EIBCfAKIwfg2IICECHFwTKgahJEdA0x8a2+RAEBAEDBO4etmyZd/avXv3PJ8c9uzZIw888IA8+uij8tJLL7V+uN79gP0pp5wiF110kVx22WWybNkynyll+fLlB/fs2fNVfsfQCxuDIVAVAURhVWSZ1yQBDq4my0bQgQho+kNjGyg93ECg/gS6u7v/8cgjj/Tm/R3CvXv3yrXXXivu38PDw5MC6u7ulqVLl8rdd9/d+neej/sdw49//OODw8PD78kznjEQgEClBBCFleJlcmsEOLhaqxjxhiSg6Q+Nbcgc8QWBOhO4csWKFZufeOKJk/Ik+bOf/Uw++9nP5hl6zJif/vSn8pnPfCaX3fnnn//arl27NvDSmVy4GASBKgkgCquky9zmCHBwNVcyAg5IQNMfGtuAKeIKAvUl4L5L+KMf/eislStXTpukE4Rr1qyRN954Y9qx4wfMmTNHtm3blksY7ty5Uz7/+c/z3UJvyhhAoHQCiMLSkTKhZQIcXC1Xj9irJqDpD41t1XkxPwSaQODUE044Yd+hQ4e6pkvWPSp61llnTTds2r9/9tlncz1KOnfu3JHXX399sYi8OO2kDIAABKoigCisiizzmiTAwdVk2Qg6EAFNf2hsA6WHGwjUmsCVl156af+OHTu6p8vy3HPPFfd9P+3HfW/xqaeemnaaVatWDT/44IP8buG0pBgAgUoJIAorxcvk1ghwcLVWMeINSUDTHxrbkDniCwJWCfyniPxvEZnwbTDz58+/f9OmTZdN9zMU7i2j//Ef/zHlS2XyAnIvn/nlL3857VtJ3c9TbNy48YEDBw5cnnduxkEAAqUTQBSWjpQJLRPg4Gq5esReNQFNf2hsq86L+SFQBwLuy38zReQ77/xzjDjs6en5w86dOz8w3VtH165dK06klfVxInTr1q1TTufuSq5cufKPQ0NDZ5Tll3kgAAFvAohCb2QY1JkAB9c6V5fctAQ0/aGx1caNPQSaQOB6EdkkIjPe+efOdnF4wgknHNy3b99JixYtmpLF+9//fvnLX/5SGq9/+7d/kz//+c9Tzvfyyy/L4sWLX3v99de9fjuxtCCZCAIQcAQQhVwHEGgjwMGVywECkxPQ9IfGlppAAAL5CAyKSM87Qw+3i8OZM2ceeP3112e6H5yf6tPV1dX6YfqyPs7fyMjIlNM5fyeccMLRo0ePHleWX+aBAAS8CSAKvZFhUGcCHFzrXF1y0xLQ9MevReTftQFgDwEITEtgTEQ62kaNisgOEfnU22+7Fp76M2OGu9FY7sfDb/nOy02F2SBQZwKIwjpXl9y8CWgOvd7OMICAMQL0h7GCEW7jCHCnsHElJ2EIlEYAUVgaSiaqAwEOvXWoIjlURYD+qIos80JAT8D9pMM3+E6hHiQzQKChBBCFDS08aU9MgEMvVwYEJidAf3B1QCBdArx9NN3aEBkELBBAFFqoEjEGI8ChNxhqHBkkQH8YLBohN4YAv1PYmFKTKAQqIYAorAQrk1olwKHXauWIOwQB+iMEZXxAoBoCV1566aX9O3bs6J5u+nPPPVfcbwdqP+43EZ966qlpp1m1atXwgw8+6B5//fG0gxkAAQhURQBRWBVZ5jVJgEOvybIRdCAC9Ecg0LiBQAUETj3hhBP2HTp0qGu6uffu3StnnXXWdMOm/ftnn31Wli5dOu24uXPnjrz++uuLReTFaQczAAIQqIoAorAqssxrkgCHXpNlI+hABOiPQKBxA4EqCPT29v7+Rz/60VkrV66cdvqf/exnsmbNGnnjDfdVRb/PnDlzZNu2bfKZz3xmWsOdO3fK5z//+WcHBwc/OO1gBkAAAlUSQBRWSZe5zRHg0GuuZAQckAD9ERA2riBQAYErV6xYsfmJJ544Kc/cThh+9rOfzTP0mDE//elPcwlCZ3T++ee/tmvXrg08OuqNGQMIlE0AUVg2UeYzTYBDr+nyEXzFBOiPigEzPQSqJtDd3f2PRx55pNd93y/Pxz1Keu2114r79/Dw8KQm3d3drUdF77777lyPjLqJ3PcWP/7xjw8ODw+/J08sjIEABColgCisFC+TWyPAoddaxYg3JAH6IyRtfEGgGgJXL1u27Fu7d++e5zP9nj175IEHHpBHH31UXnrpJXnzzTfl+OOPl1NOOUUuuugiueyyy2TZsmU+U8ry5csP7tmz56si8gMvQwZDAAJVEEAUVkGVOc0S4NBrtnQEHoAA/REAMi4gUDUB993C22677axrrrmmaleTzn/PPffIrbfeyncJo1UAxxD4FwKIQi4KCLQR4NDL5QCByQnQH1wdEKgHAfdSl2d+85vfyDnnnBM8o6efflo+8pGPOL9ni8jvgweAQwhAYCICiEKuCwggCrkGIJCLAKIwFyYGQcAEgSsXLlzY//TTT3cvWrQoWMAvv/yyE6LDr7zyCr9LGIw6jiCQiwCiMBcmBjWFAIfeplSaPIsQoD+KUMMGAukSuPn000+/YdeuXSeFEIZOEK5YseK1P/3pT98VkW+ki4XIINBIAojCRpadpCcjwKGXawMCkxOgP7g6IFA/AjcvXLjwKw8++GB3lY+SukdGL730UneH8L8QhPW7iMioFgQQhbUoI0mURYBDb1kkmaeOBOiPOlaVnCAgcqWI3Lt161ap4uUz7qUya9eudZyv4vcIudwgkCwBRGGypSGwGAQ49Magjk8rBOgPK5UiTgj4E/hgb2/vjxcvXnzat7/97Xl5f8dwKjfudwhvvPHGg/v27XthcHDQCU9eKuNfFywgEIoAojAUafyYIMCh10SZCDISAfojEnjcQiAggau7u7vv+PCHPzzruuuuO2nlypXernfu3Cl33XXXa7/97W+PDA8P38LvEHojxAACMQggCmNQx2eyBDj0JlsaAkuAAP2RQBEIAQKBCFzZ29t73eHDh5dceOGFRy644ILuM888U9773vdKb29v64fr3Q/YDw4Oyt/+9jd57rnn5PHHHx9+7LHHZs2ePfv5wcHBu3hUNFClcAOBcgggCsvhyCw1IcChtyaFJI1KCNAflWBlUggkTeBUEblg/vz553d0dHxwZGRk4cjIyNyjR4/OnDlz5tGurq5DXV1dr4yNjf3+wIEDT4jI4yLyYtIZERwEIDARAUQh1wUE2ghw6OVygMDkBOgPrg4IQAACEIBAPQkgCutZV7IqSIBDb0FwmDWCAP3RiDKTJAQgAAEINJAAorCBRSdl7oRwDUCgCAFEYRFq2EAAAhCAAATSJ4AoTL9GRBiQAIfegLBxZY4A/WGuZAQMAQhAAAIQyEUAUZgLE4OaQoBDb1MqTZ5FCNAfRahhAwEIQAACEEifAKIw/RoRYUACHHoDwsaVOQL0h7mSETAEIAABCEAgFwFEYS5MDGoKAQ69Tak0eRYhQH8UoYYNBCAAAQhAIH0CiML0a0SEAQlw6A0IG1fmCNAf5kpGwBCAAAQgAIFcBBCFuTAxqCkEOPQ2pdLkWYQA/VGEGjYQgAAEIACB9AkgCtOvEREGJMChNyBsXJkjQH+YKxkBQwACEIAABHIRQBTmwsSgphDg0NuUSpNnEQL0RxFq2EAAAhCAAATSJ4AoTL9GRBiQAIfegLBxZY4A/WGuZAQMAQhAAAIQyEUAUZgLE4OaQoBDb1MqTZ5FCNAfRahhAwEIQAACEEifAKIw/RoRYUACHHoDwsaVOQL0h7mSETAEIAABCEAgFwFEYS5MDGoKAQ69Tak0eRYhQH8UoYYNBCAAAQhAIH0CiML0a0SEAQlw6A0IG1fmCNAf5kpGwBCAAAQgAIFcBBCFuTAxqCkEOPQ2pdLkWYQA/VGEGjYQgAAEIACB9AkgCtOvEREGJMChNyBsXJkjQH+YKxkBQwACEIAABHIRQBTmwsSgphDg0NuUSpNnEQL0RxFq2EAAAhCAAATSJ4AoTL9GRBiQAIfegLBxZY4A/WGuZAQMAQhAAAIQyEUAUZgLE4OaQoBDb1MqTZ5FCNAfRahhAwEIQAACEEifAKIw/RoRYUACHHoDwsaVOQL0h7mSETAEIAABCEAgFwFEYS5MDGoKAQ69Tak0eRYhQH8UoYYNBCAAAQhAIH0CiML0a0SEAQlw6A0IG1fmCNAf5kpGwBCAAAQgAIFcBBCFuTAxqCkEOPQ2pdLkWYQA/VGEGjYQgAAEIACB9AkgCtOvEREGJMChNyBsXJkjQH+YKxkBQwACEIAABHIRQBTmwsSgphDg0NuUSpNnEQL0RxFq2EAAAhCAAATSJ4AoTL9GRBiQAIfegLBxZY4A/WGuZAQMAQhAAAIQyEUAUZgLE4OaQoBDb1MqTZ5FCNAfRahhAwEIQAACEEifAKIw/RoRYUACHHoDwsaVOQL0h7mSETAEIAABCEAgFwFEYS5MDGoKAQ69Tak0eRYhQH8UoYYNBCAAAQhAIH0CiML0a0SEAQlw6A0IG1fmCNAf5kpGwBCAAAQgAIFcBBCFuTAxqCkEOPQ2pdLkWYQA/VGEGjYQgAAEIACB9AkgCtOvEREGJMChNyBsXJkjQH+YKxkBQwACEIAABHIRQBTmwsSgphDg0NuUSpNnEQL0RxFq2EAAAhCAAATSJ4AoTL9GRBiQAIfegLBxZY4A/WGuZAQMAQhAAAIQyEUAUZgLE4OaQoBDb1MqTZ5FCNAfRahhAwEIQAACEEifAKIw/RoRYUACHHoDwsaVOQL0h7mSETAEIAABCEAgFwFEYS5MDGoKAQ69Tak0eRYhQH8UoYYNBCAAAQhAIH0CiML0a0SEAQlw6A0IG1fmCNAf5kpGwBCAAAQgAIFcBBCFuTAxqCkEOPQ2pdLkWYQA/VGEGjYQgAAEIACB9AkgCtOvEREGJMChNyBsXJkjQH+YKxkBQwACEIAABHIRQBTmwsSgphDg0NuUSpNnEQL0RxFq2EAAAhCAAATSJ4AoTL9GRBiQAIfegLBxZY4A/WGuZAQMAQhAAAIQyEUAUZgLE4OaQoBDb1MqTZ5FCNAfRahhAwEIQAACEEifAKIw/RoRYUACHHoDwsaVOQL0h7mSETAEIAABCEAgFwFEYS5MDGoKAQ69Tak0eRYhQH8UoYYNBCAAAQhAIH0CiML0a0SEAQlw6A0IG1fmCNAf5kpGwBCAAAQgAIFcBBCFuTAxqCkEOPQ2pdLkWYQA/VGEGjYQgAAEIACB9AkgCtOvEREGJMChNyBsXJkjQH+YKxkBQwACEIAABHIRQBTmwsSgphDg0NuUSpNnEQL0RxFq2EAAAhCAAATSJ4AoTL9GRBiQAIfegLBxZY4A/WGuZAQMAQhAAAIQyEUAUZgLE4OaQoBDb1MqTZ5FCNAfRahhAwEIQAACEEifAKIw/RoRYUACHHoDwsaVOQL0h7mSETAEIAABCEAgFwFEYS5MDGoKAQ69Tak0eRYhQH8UoYYNBCAAAQhAIH0CiML0a0SEAQlw6A0IG1fmCNAf5kpGwBCAAAQgAIFcBBCFuTAxqCkEOPQ2pdLkWYQA/VGEGjYQgAAEIACB9AkgCtOvEREGJMChNyBsXJkjQH+YKxkBQwACEIAABHIRQBTmwsSgphDg0NuUSpNnEQL0RxFq2EAAAhCAAATSJ4AoTL9GRBiQAIfegLBxZY4A/WGuZAQMAQhAAAIQyEUAUZgLE4OaQoBDb1MqTZ5FCNAfRahhAwEIQAACEEifAKIw/RoRYUACHHoDwsaVOQL0h7mSETAEIAABCEAgFwFEYS5MDGoKAQ69Tak0eRYhQH8UoYYNBCAAAQhAIH0CiML0a0SEAQlw6A0IG1fmCNAf5kpGwBCAAAQgAIFcBBCFuTAxqCkEOPQ2pdLkWYQA/VGEGjYQgAAEIACB9AkgCtOvEREGJMChNyBsXJkjQH+YKxkBQwACEIAABHIRQBTmwsSgphDg0NuUSpNnEQL0RxFq2EAAAhCAAATSJ4AoTL9GRBiQAIfegLBxZY4A/WGuZAQMAQhAAAIQyEUAUZgLE4OaQoBDb1MqTZ5FCNAfRahhAwEIQAACEEifQEsU/lpE/j39WIkQApUTOCgi8yr3ggMI2CRAf9isG1FDAAIQgAAEpiPwP04U8oEABCAAAQhAAAIQgAAEIACBhhL4vxcB+CBeTUFQAAAADmVYSWZNTQAqAAAACAAAAAAAAADSU5MAAAAASUVORK5CYII=;" vertex="1" parent="1">
          <mxGeometry x="-830" y="20" width="901" height="752" as="geometry" />
        </mxCell>
      </root>
    </mxGraphModel>
  </diagram>
</mxfile>
